<?xml version="1.0" encoding="UTF-8" standalone="no"?><!-- Generator: Gravit.io --><svg xmlns="http://www.w3.org/2000/svg" xmlns:xlink="http://www.w3.org/1999/xlink" style="isolation:isolate" viewBox="0 0 90.709 90.709" width="90.709pt" height="90.709pt"><defs><clipPath id="_clipPath_0dV8b7KEt8pC9CIlkJt3aNVmJ7C88tiM"><rect width="90.709" height="90.709"/></clipPath></defs><g clip-path="url(#_clipPath_0dV8b7KEt8pC9CIlkJt3aNVmJ7C88tiM)"><g><linearGradient id="_lgradient_0" x1="0.5" y1="0" x2="0.5000000000000001" y2="1" gradientTransform="matrix(90.709,0,0,90.709,0,0)" gradientUnits="userSpaceOnUse"><stop offset="0%" stop-opacity="1" style="stop-color:rgb(67,67,67)"/><stop offset="100%" stop-opacity="1" style="stop-color:rgb(0,0,0)"/></linearGradient><path d=" M 0 45.354 C 0 20.323 20.323 0 45.354 0 C 70.386 0 90.709 20.323 90.709 45.354 C 90.709 70.386 70.386 90.709 45.354 90.709 C 20.323 90.709 0 70.386 0 45.354 Z " fill="url(#_lgradient_0)"/><linearGradient id="_lgradient_1" x1="0.5" y1="0" x2="0.5000000000000001" y2="0.9999999999999998" gradientTransform="matrix(64.792,0,0,64.792,12.958,12.958)" gradientUnits="userSpaceOnUse"><stop offset="0%" stop-opacity="1" style="stop-color:rgb(42,42,42)"/><stop offset="100%" stop-opacity="1" style="stop-color:rgb(23,23,23)"/></linearGradient><path d=" M 12.958 45.354 C 12.958 27.475 27.475 12.958 45.354 12.958 C 63.234 12.958 77.75 27.475 77.75 45.354 C 77.75 63.234 63.234 77.75 45.354 77.75 C 27.475 77.75 12.958 63.234 12.958 45.354 Z " fill="url(#_lgradient_1)"/></g></g></svg>