<?xml version="1.0" encoding="UTF-8" standalone="no"?><!-- Generator: Gravit.io --><svg xmlns="http://www.w3.org/2000/svg" xmlns:xlink="http://www.w3.org/1999/xlink" style="isolation:isolate" viewBox="0 0 90.709 90.709" width="90.709pt" height="90.709pt"><defs><clipPath id="_clipPath_TsScScyIZnZksuTC5XTmHRDhpq1Ojsdn"><rect width="90.709" height="90.709"/></clipPath></defs><g clip-path="url(#_clipPath_TsScScyIZnZksuTC5XTmHRDhpq1Ojsdn)"><path d=" M 0 45.354 C 0 20.323 20.323 0 45.354 0 C 70.386 0 90.709 20.323 90.709 45.354 C 90.709 70.386 70.386 90.709 45.354 90.709 C 20.323 90.709 0 70.386 0 45.354 Z " fill="none"/><path d="M 44.706 2.592 L 46.002 2.592 C 46.36 2.592 46.65 2.882 46.65 3.24 L 46.65 9.719 C 46.65 10.076 46.36 10.367 46.002 10.367 L 44.706 10.367 C 44.349 10.367 44.058 10.076 44.058 9.719 L 44.058 3.24 C 44.058 2.882 44.349 2.592 44.706 2.592 Z" style="stroke:none;fill:#EBEBEB;stroke-miterlimit:10;"/></g></svg>