<?xml version="1.0" encoding="UTF-8" standalone="no"?><!-- Generator: Gravit.io --><svg xmlns="http://www.w3.org/2000/svg" xmlns:xlink="http://www.w3.org/1999/xlink" style="isolation:isolate" viewBox="0 0 34.016 34.016" width="34.016pt" height="34.016pt"><defs><clipPath id="_clipPath_vHwUpascsI7pmCPJKSGLnoBp1DpQXEZN"><rect width="34.016" height="34.016"/></clipPath></defs><g clip-path="url(#_clipPath_vHwUpascsI7pmCPJKSGLnoBp1DpQXEZN)"><g><linearGradient id="_lgradient_2" x1="0.5" y1="0" x2="0.5000000000000001" y2="1" gradientTransform="matrix(34.016,0,0,34.016,0,0)" gradientUnits="userSpaceOnUse"><stop offset="0%" stop-opacity="1" style="stop-color:rgb(67,67,67)"/><stop offset="100%" stop-opacity="1" style="stop-color:rgb(0,0,0)"/></linearGradient><path d=" M 0 17.008 C 0 7.621 7.621 0 17.008 0 C 26.395 0 34.016 7.621 34.016 17.008 C 34.016 26.395 26.395 34.016 17.008 34.016 C 7.621 34.016 0 26.395 0 17.008 Z " fill="url(#_lgradient_2)"/><linearGradient id="_lgradient_3" x1="0.5" y1="-1.7763568394002505e-15" x2="0.5000000000000001" y2="0.9999999999999982" gradientTransform="matrix(22.677,0,0,22.677,5.669,5.669)" gradientUnits="userSpaceOnUse"><stop offset="0%" stop-opacity="1" style="stop-color:rgb(42,42,42)"/><stop offset="100%" stop-opacity="1" style="stop-color:rgb(23,23,23)"/></linearGradient><path d=" M 5.669 17.008 C 5.669 10.75 10.75 5.669 17.008 5.669 C 23.266 5.669 28.346 10.75 28.346 17.008 C 28.346 23.266 23.266 28.346 17.008 28.346 C 10.75 28.346 5.669 23.266 5.669 17.008 Z " fill="url(#_lgradient_3)"/></g></g></svg>