<?xml version="1.0" encoding="UTF-8" standalone="no"?><!-- Generator: Gravit.io --><svg xmlns="http://www.w3.org/2000/svg" xmlns:xlink="http://www.w3.org/1999/xlink" style="isolation:isolate" viewBox="0 0 34.016 34.016" width="34.016pt" height="34.016pt"><defs><clipPath id="_clipPath_YPBynAofigg9fFFBzMQ9zTz3bxFGwp5O"><rect width="34.016" height="34.016"/></clipPath></defs><g clip-path="url(#_clipPath_YPBynAofigg9fFFBzMQ9zTz3bxFGwp5O)"><path d=" M 0 17.008 C 0 7.621 7.621 0 17.008 0 C 26.395 0 34.016 7.621 34.016 17.008 C 34.016 26.395 26.395 34.016 17.008 34.016 C 7.621 34.016 0 26.395 0 17.008 Z " fill="none"/><path d=" M 15.971 1.533 L 18.045 1.533 C 18.277 1.533 18.466 1.721 18.466 1.954 L 18.466 4.031 C 18.466 4.264 18.277 4.452 18.045 4.452 L 15.971 4.452 C 15.739 4.452 15.55 4.264 15.55 4.031 L 15.55 1.954 C 15.55 1.721 15.739 1.533 15.971 1.533 Z " fill="rgb(235,235,235)"/></g></svg>