<?xml version="1.0" encoding="UTF-8" standalone="no"?><!-- Generator: Gravit.io --><svg xmlns="http://www.w3.org/2000/svg" xmlns:xlink="http://www.w3.org/1999/xlink" style="isolation:isolate" viewBox="0 0 11.339 11.339" width="11.339pt" height="11.339pt"><defs><clipPath id="_clipPath_DSFkkyN6HfTvqJGQFdDucXEd8mG2SidN"><rect width="11.339" height="11.339"/></clipPath></defs><g clip-path="url(#_clipPath_DSFkkyN6HfTvqJGQFdDucXEd8mG2SidN)"><linearGradient id="_lgradient_6" x1="0.5" y1="0" x2="0.5000000000000001" y2="0.9999999999999998" gradientTransform="matrix(11.339,0,0,11.339,0,0)" gradientUnits="userSpaceOnUse"><stop offset="0%" stop-opacity="1" style="stop-color:rgb(42,42,42)"/><stop offset="100%" stop-opacity="1" style="stop-color:rgb(23,23,23)"/></linearGradient><path d=" M 0 5.669 C 0 2.54 2.54 0 5.669 0 C 8.798 0 11.339 2.54 11.339 5.669 C 11.339 8.798 8.798 11.339 5.669 11.339 C 2.54 11.339 0 8.798 0 5.669 Z " fill="url(#_lgradient_6)"/><path d=" M 0.567 5.669 C 0.567 2.853 2.853 0.567 5.669 0.567 C 8.485 0.567 10.772 2.853 10.772 5.669 C 10.772 8.485 8.485 10.772 5.669 10.772 C 2.853 10.772 0.567 8.485 0.567 5.669 Z " fill="rgb(144,144,144)"/><path d=" M 1.417 5.669 C 1.417 3.323 3.323 1.417 5.669 1.417 C 8.016 1.417 9.921 3.323 9.921 5.669 C 9.921 8.016 8.016 9.921 5.669 9.921 C 3.323 9.921 1.417 8.016 1.417 5.669 Z " fill="rgb(192,192,192)"/></g></svg>