<?xml version="1.0" encoding="UTF-8" standalone="no"?><!-- Generator: Gravit.io --><svg xmlns="http://www.w3.org/2000/svg" xmlns:xlink="http://www.w3.org/1999/xlink" style="isolation:isolate" viewBox="0 0 24.009 24.009" width="24.009pt" height="24.009pt"><defs><clipPath id="_clipPath_Y5KfuD6zazhGPs9YyBFVq7MdbrEOXQ5f"><rect width="24.009" height="24.009"/></clipPath></defs><g clip-path="url(#_clipPath_Y5KfuD6zazhGPs9YyBFVq7MdbrEOXQ5f)"><g><linearGradient id="_lgradient_7" x1="0.5" y1="0" x2="0.5000000000000001" y2="1" gradientTransform="matrix(23.698,0,0,23.698,0.156,0.156)" gradientUnits="userSpaceOnUse"><stop offset="0%" stop-opacity="1" style="stop-color:rgb(238,238,238)"/><stop offset="100%" stop-opacity="1" style="stop-color:rgb(192,192,192)"/></linearGradient><mask id="_mask_x6avMj0YUeZ2sbJDcAxZowicCs6RJztY"><path d=" M 0.156 12.005 C 0.156 5.465 5.465 0.156 12.005 0.156 C 18.544 0.156 23.854 5.465 23.854 12.005 C 23.854 18.544 18.544 23.854 12.005 23.854 C 5.465 23.854 0.156 18.544 0.156 12.005 Z " fill="white" stroke="none"/></mask><path d=" M 0.156 12.005 C 0.156 5.465 5.465 0.156 12.005 0.156 C 18.544 0.156 23.854 5.465 23.854 12.005 C 23.854 18.544 18.544 23.854 12.005 23.854 C 5.465 23.854 0.156 18.544 0.156 12.005 Z " fill="url(#_lgradient_7)"/><path d=" M 0.156 12.005 C 0.156 5.465 5.465 0.156 12.005 0.156 C 18.544 0.156 23.854 5.465 23.854 12.005 C 23.854 18.544 18.544 23.854 12.005 23.854 C 5.465 23.854 0.156 18.544 0.156 12.005 Z " fill="url(#_lgradient_7)" mask="url(#_mask_x6avMj0YUeZ2sbJDcAxZowicCs6RJztY)" vector-effect="non-scaling-stroke" stroke-width="2" stroke="rgb(160,160,160)" stroke-linejoin="miter" stroke-linecap="square" stroke-miterlimit="3"/><mask id="_mask_auJo9nmz4WtbrsvYsnUCFNN46qzpwOyq"><path d=" M 5.74 12.005 C 5.74 8.547 8.547 5.74 12.005 5.74 C 15.463 5.74 18.27 8.547 18.27 12.005 C 18.27 15.463 15.463 18.27 12.005 18.27 C 8.547 18.27 5.74 15.463 5.74 12.005 Z " fill="white" stroke="none"/></mask><path d=" M 5.74 12.005 C 5.74 8.547 8.547 5.74 12.005 5.74 C 15.463 5.74 18.27 8.547 18.27 12.005 C 18.27 15.463 15.463 18.27 12.005 18.27 C 8.547 18.27 5.74 15.463 5.74 12.005 Z " fill="rgb(26,26,26)"/><path d=" M 5.74 12.005 C 5.74 8.547 8.547 5.74 12.005 5.74 C 15.463 5.74 18.27 8.547 18.27 12.005 C 18.27 15.463 15.463 18.27 12.005 18.27 C 8.547 18.27 5.74 15.463 5.74 12.005 Z " fill="rgb(26,26,26)" mask="url(#_mask_auJo9nmz4WtbrsvYsnUCFNN46qzpwOyq)" vector-effect="non-scaling-stroke" stroke-width="2" stroke="rgb(112,112,112)" stroke-linejoin="miter" stroke-linecap="square" stroke-miterlimit="3"/></g></g></svg>