<?xml version="1.0" encoding="UTF-8" standalone="no"?><!-- Generator: Gravit.io --><svg xmlns="http://www.w3.org/2000/svg" xmlns:xlink="http://www.w3.org/1999/xlink" style="isolation:isolate" viewBox="0 0 144 364.252" width="144pt" height="364.252pt"><defs><clipPath id="_clipPath_BCw7uma5Y1GAqpn2sWSaRHbjoxf6Dymu"><rect width="144" height="364.252"/></clipPath></defs><g clip-path="url(#_clipPath_BCw7uma5Y1GAqpn2sWSaRHbjoxf6Dymu)"><rect width="144" height="364.252" style="fill:rgb(235,235,235)" fill-opacity="0"/><g><rect x="0" y="0" width="144" height="364.252" transform="matrix(1,0,0,1,0,0)" fill="rgb(235,235,235)"/></g><g><path d=" M 38.112 0 L 105.888 0 L 105.888 25.795 C 105.888 27.36 104.618 28.63 103.054 28.63 Q 73.567 28.63 40.946 28.63 C 39.382 28.63 38.112 27.36 38.112 25.795 L 38.112 0 Z " fill="rgb(191,68,68)"/><g><path d=" M 43.784 5.916 L 45.872 5.666 L 45.872 22.691 L 43.784 22.691 L 43.784 5.916 Z " fill="rgb(235,235,235)"/><path d=" M 50.412 10.728 L 52.75 10.728 L 48.346 16.017 L 53.249 22.691 L 50.752 22.691 L 46.008 16.154 L 50.412 10.728 Z " fill="rgb(235,235,235)"/><path d=" M 62.664 19.899 L 62.664 19.899 Q 62.664 20.626 62.914 20.977 L 62.914 20.977 L 62.914 20.977 Q 63.164 21.329 63.663 21.511 L 63.663 21.511 L 63.187 22.964 L 63.187 22.964 Q 62.256 22.85 61.688 22.442 L 61.688 22.442 L 61.688 22.442 Q 61.121 22.033 60.848 21.17 L 60.848 21.17 L 60.848 21.17 Q 59.645 22.964 57.285 22.964 L 57.285 22.964 L 57.285 22.964 Q 55.514 22.964 54.492 21.965 L 54.492 21.965 L 54.492 21.965 Q 53.471 20.966 53.471 19.354 L 53.471 19.354 L 53.471 19.354 Q 53.471 17.448 54.844 16.426 L 54.844 16.426 L 54.844 16.426 Q 56.218 15.405 58.737 15.405 L 58.737 15.405 L 60.576 15.405 L 60.576 14.519 L 60.576 14.519 Q 60.576 13.248 59.963 12.703 L 59.963 12.703 L 59.963 12.703 Q 59.35 12.158 58.079 12.158 L 58.079 12.158 L 58.079 12.158 Q 56.762 12.158 54.856 12.794 L 54.856 12.794 L 54.334 11.273 L 54.334 11.273 Q 56.558 10.456 58.465 10.456 L 58.465 10.456 L 58.465 10.456 Q 60.576 10.456 61.62 11.489 L 61.62 11.489 L 61.62 11.489 Q 62.664 12.522 62.664 14.428 L 62.664 14.428 L 62.664 19.899 Z  M 57.761 21.397 L 57.761 21.397 Q 59.555 21.397 60.576 19.536 L 60.576 19.536 L 60.576 16.789 L 59.01 16.789 L 59.01 16.789 Q 55.696 16.789 55.696 19.241 L 55.696 19.241 L 55.696 19.241 Q 55.696 20.308 56.218 20.853 L 56.218 20.853 L 56.218 20.853 Q 56.74 21.397 57.761 21.397 L 57.761 21.397 Z " fill-rule="evenodd" fill="rgb(235,235,235)"/><path d=" M 71.784 10.456 L 71.784 10.456 Q 73.419 10.456 74.338 11.432 L 74.338 11.432 L 74.338 11.432 Q 75.257 12.408 75.257 14.111 L 75.257 14.111 L 75.257 22.691 L 73.169 22.691 L 73.169 14.406 L 73.169 14.406 Q 73.169 13.135 72.692 12.612 L 72.692 12.612 L 72.692 12.612 Q 72.216 12.09 71.285 12.09 L 71.285 12.09 L 71.285 12.09 Q 70.332 12.09 69.605 12.635 L 69.605 12.635 L 69.605 12.635 Q 68.879 13.18 68.243 14.201 L 68.243 14.201 L 68.243 22.691 L 66.155 22.691 L 66.155 10.728 L 67.948 10.728 L 68.13 12.499 L 68.13 12.499 Q 68.765 11.546 69.707 11.001 L 69.707 11.001 L 69.707 11.001 Q 70.649 10.456 71.784 10.456 L 71.784 10.456 Z " fill="rgb(235,235,235)"/><path d=" M 83.152 10.456 L 83.152 10.456 Q 85.671 10.456 87.067 12.136 L 87.067 12.136 L 87.067 12.136 Q 88.463 13.816 88.463 16.698 L 88.463 16.698 L 88.463 16.698 Q 88.463 18.56 87.828 19.979 L 87.828 19.979 L 87.828 19.979 Q 87.192 21.397 85.989 22.181 L 85.989 22.181 L 85.989 22.181 Q 84.786 22.964 83.129 22.964 L 83.129 22.964 L 83.129 22.964 Q 80.609 22.964 79.202 21.284 L 79.202 21.284 L 79.202 21.284 Q 77.794 19.604 77.794 16.721 L 77.794 16.721 L 77.794 16.721 Q 77.794 14.86 78.43 13.441 L 78.43 13.441 L 78.43 13.441 Q 79.066 12.022 80.269 11.239 L 80.269 11.239 L 80.269 11.239 Q 81.472 10.456 83.152 10.456 L 83.152 10.456 Z  M 83.152 12.136 L 83.152 12.136 Q 80.042 12.136 80.042 16.721 L 80.042 16.721 L 80.042 16.721 Q 80.042 21.284 83.129 21.284 L 83.129 21.284 L 83.129 21.284 Q 86.216 21.284 86.216 16.698 L 86.216 16.698 L 86.216 16.698 Q 86.216 12.136 83.152 12.136 L 83.152 12.136 Z " fill-rule="evenodd" fill="rgb(235,235,235)"/><path d=" M 96.743 10.456 L 96.743 10.456 Q 98.378 10.456 99.297 11.432 L 99.297 11.432 L 99.297 11.432 Q 100.216 12.408 100.216 14.111 L 100.216 14.111 L 100.216 22.691 L 98.128 22.691 L 98.128 14.406 L 98.128 14.406 Q 98.128 13.135 97.651 12.612 L 97.651 12.612 L 97.651 12.612 Q 97.175 12.09 96.244 12.09 L 96.244 12.09 L 96.244 12.09 Q 95.291 12.09 94.564 12.635 L 94.564 12.635 L 94.564 12.635 Q 93.838 13.18 93.202 14.201 L 93.202 14.201 L 93.202 22.691 L 91.114 22.691 L 91.114 10.728 L 92.907 10.728 L 93.089 12.499 L 93.089 12.499 Q 93.724 11.546 94.666 11.001 L 94.666 11.001 L 94.666 11.001 Q 95.608 10.456 96.743 10.456 L 96.743 10.456 Z " fill="rgb(235,235,235)"/></g></g><g><g><path d=" M 59.977 139.266 L 59.977 139.266 Q 60.504 139.266 60.865 139.402 L 60.865 139.402 L 60.865 139.402 Q 61.226 139.538 61.6 139.844 L 61.6 139.844 L 61.158 140.363 L 61.158 140.363 Q 60.623 139.929 60.028 139.929 L 60.028 139.929 L 60.028 139.929 Q 59.297 139.929 58.85 140.49 L 58.85 140.49 L 58.85 140.49 Q 58.404 141.051 58.404 142.292 L 58.404 142.292 L 58.404 142.292 Q 58.404 143.499 58.846 144.073 L 58.846 144.073 L 58.846 144.073 Q 59.288 144.647 60.019 144.647 L 60.019 144.647 L 60.019 144.647 Q 60.393 144.647 60.674 144.519 L 60.674 144.519 L 60.674 144.519 Q 60.954 144.392 61.269 144.162 L 61.269 144.162 L 61.668 144.672 L 61.668 144.672 Q 61.396 144.953 60.971 145.14 L 60.971 145.14 L 60.971 145.14 Q 60.546 145.327 59.994 145.327 L 59.994 145.327 L 59.994 145.327 Q 59.28 145.327 58.723 144.974 L 58.723 144.974 L 58.723 144.974 Q 58.166 144.621 57.856 143.937 L 57.856 143.937 L 57.856 143.937 Q 57.546 143.253 57.546 142.292 L 57.546 142.292 L 57.546 142.292 Q 57.546 141.332 57.869 140.647 L 57.869 140.647 L 57.869 140.647 Q 58.192 139.963 58.744 139.615 L 58.744 139.615 L 58.744 139.615 Q 59.297 139.266 59.977 139.266 L 59.977 139.266 Z " fill="rgb(0,0,0)"/><path d=" M 64.779 139.266 L 64.779 139.266 Q 65.519 139.266 66.075 139.619 L 66.075 139.619 L 66.075 139.619 Q 66.632 139.972 66.942 140.652 L 66.942 140.652 L 66.942 140.652 Q 67.253 141.332 67.253 142.301 L 67.253 142.301 L 67.253 142.301 Q 67.253 143.253 66.942 143.933 L 66.942 143.933 L 66.942 143.933 Q 66.632 144.613 66.075 144.97 L 66.075 144.97 L 66.075 144.97 Q 65.519 145.327 64.779 145.327 L 64.779 145.327 L 64.779 145.327 Q 64.04 145.327 63.483 144.978 L 63.483 144.978 L 63.483 144.978 Q 62.926 144.63 62.616 143.95 L 62.616 143.95 L 62.616 143.95 Q 62.306 143.27 62.306 142.309 L 62.306 142.309 L 62.306 142.309 Q 62.306 141.366 62.616 140.677 L 62.616 140.677 L 62.616 140.677 Q 62.926 139.989 63.487 139.627 L 63.487 139.627 L 63.487 139.627 Q 64.048 139.266 64.779 139.266 L 64.779 139.266 Z  M 64.779 139.929 L 64.779 139.929 Q 64.014 139.929 63.589 140.507 L 63.589 140.507 L 63.589 140.507 Q 63.164 141.085 63.164 142.309 L 63.164 142.309 L 63.164 142.309 Q 63.164 143.525 63.593 144.094 L 63.593 144.094 L 63.593 144.094 Q 64.023 144.664 64.779 144.664 L 64.779 144.664 L 64.779 144.664 Q 66.394 144.664 66.394 142.301 L 66.394 142.301 L 66.394 142.301 Q 66.394 139.929 64.779 139.929 L 64.779 139.929 Z " fill-rule="evenodd" fill="rgb(0,0,0)"/><path d=" M 72.54 145.225 L 71.69 145.225 L 71.248 143.754 L 69.029 143.754 L 68.587 145.225 L 67.771 145.225 L 69.65 139.368 L 70.67 139.368 L 72.54 145.225 Z  M 70.143 140.04 L 69.225 143.1 L 71.052 143.1 L 70.143 140.04 Z " fill-rule="evenodd" fill="rgb(0,0,0)"/><path d=" M 76.56 145.225 L 75.158 142.743 L 74.248 142.743 L 74.248 145.225 L 73.441 145.225 L 73.441 139.368 L 74.979 139.368 L 74.979 139.368 Q 76.076 139.368 76.641 139.785 L 76.641 139.785 L 76.641 139.785 Q 77.206 140.201 77.206 141.026 L 77.206 141.026 L 77.206 141.026 Q 77.206 141.638 76.892 142.02 L 76.892 142.02 L 76.892 142.02 Q 76.577 142.403 75.94 142.598 L 75.94 142.598 L 77.521 145.225 L 76.56 145.225 Z  M 74.248 142.122 L 75.064 142.122 L 75.064 142.122 Q 75.702 142.122 76.025 141.863 L 76.025 141.863 L 76.025 141.863 Q 76.348 141.604 76.348 141.026 L 76.348 141.026 L 76.348 141.026 Q 76.348 140.482 76.02 140.239 L 76.02 140.239 L 76.02 140.239 Q 75.693 139.997 74.971 139.997 L 74.971 139.997 L 74.248 139.997 L 74.248 142.122 Z " fill-rule="evenodd" fill="rgb(0,0,0)"/><path d=" M 80.028 139.266 L 80.028 139.266 Q 80.615 139.266 81.031 139.432 L 81.031 139.432 L 81.031 139.432 Q 81.448 139.598 81.839 139.946 L 81.839 139.946 L 81.397 140.439 L 81.397 140.439 Q 81.065 140.176 80.746 140.052 L 80.746 140.052 L 80.746 140.052 Q 80.428 139.929 80.062 139.929 L 80.062 139.929 L 80.062 139.929 Q 79.603 139.929 79.306 140.142 L 79.306 140.142 L 79.306 140.142 Q 79.008 140.354 79.008 140.762 L 79.008 140.762 L 79.008 140.762 Q 79.008 141.017 79.11 141.191 L 79.11 141.191 L 79.11 141.191 Q 79.212 141.366 79.488 141.51 L 79.488 141.51 L 79.488 141.51 Q 79.765 141.655 80.292 141.816 L 80.292 141.816 L 80.292 141.816 Q 80.844 141.986 81.21 142.182 L 81.21 142.182 L 81.21 142.182 Q 81.575 142.377 81.8 142.721 L 81.8 142.721 L 81.8 142.721 Q 82.026 143.066 82.026 143.593 L 82.026 143.593 L 82.026 143.593 Q 82.026 144.103 81.775 144.494 L 81.775 144.494 L 81.775 144.494 Q 81.524 144.885 81.052 145.106 L 81.052 145.106 L 81.052 145.106 Q 80.581 145.327 79.935 145.327 L 79.935 145.327 L 79.935 145.327 Q 78.719 145.327 77.946 144.57 L 77.946 144.57 L 78.388 144.077 L 78.388 144.077 Q 78.745 144.366 79.11 144.515 L 79.11 144.515 L 79.11 144.515 Q 79.476 144.664 79.926 144.664 L 79.926 144.664 L 79.926 144.664 Q 80.47 144.664 80.827 144.396 L 80.827 144.396 L 80.827 144.396 Q 81.184 144.128 81.184 143.618 L 81.184 143.618 L 81.184 143.618 Q 81.184 143.329 81.074 143.138 L 81.074 143.138 L 81.074 143.138 Q 80.963 142.947 80.695 142.794 L 80.695 142.794 L 80.695 142.794 Q 80.428 142.641 79.918 142.488 L 79.918 142.488 L 79.918 142.488 Q 79.017 142.216 78.6 141.833 L 78.6 141.833 L 78.6 141.833 Q 78.184 141.451 78.184 140.796 L 78.184 140.796 L 78.184 140.796 Q 78.184 140.354 78.417 140.006 L 78.417 140.006 L 78.417 140.006 Q 78.651 139.657 79.072 139.462 L 79.072 139.462 L 79.072 139.462 Q 79.493 139.266 80.028 139.266 L 80.028 139.266 Z " fill="rgb(0,0,0)"/><path d=" M 83.216 139.368 L 86.386 139.368 L 86.293 140.014 L 84.023 140.014 L 84.023 141.927 L 85.995 141.927 L 85.995 142.573 L 84.023 142.573 L 84.023 144.579 L 86.454 144.579 L 86.454 145.225 L 83.216 145.225 L 83.216 139.368 Z " fill="rgb(0,0,0)"/></g></g><g><g><path d=" M 26.716 215.281 L 25.909 215.281 L 25.909 209.425 L 29.02 209.425 L 28.926 210.071 L 26.716 210.071 L 26.716 212.068 L 28.629 212.068 L 28.629 212.706 L 26.716 212.706 L 26.716 215.281 Z " fill="rgb(23,23,23)"/><path d=" M 30.082 209.425 L 30.89 209.425 L 30.89 215.281 L 30.082 215.281 L 30.082 209.425 Z " fill="rgb(23,23,23)"/><path d=" M 36.695 209.425 L 36.695 215.281 L 35.616 215.281 L 33.236 210.309 L 33.236 210.309 Q 33.287 210.895 33.317 211.393 L 33.317 211.393 L 33.317 211.393 Q 33.346 211.89 33.346 212.595 L 33.346 212.595 L 33.346 215.281 L 32.59 215.281 L 32.59 209.425 L 33.644 209.425 L 36.049 214.406 L 36.049 214.406 Q 36.024 214.185 35.981 213.632 L 35.981 213.632 L 35.981 213.632 Q 35.939 213.08 35.939 212.621 L 35.939 212.621 L 35.939 209.425 L 36.695 209.425 Z " fill="rgb(23,23,23)"/><path d=" M 38.395 209.425 L 41.566 209.425 L 41.472 210.071 L 39.203 210.071 L 39.203 211.983 L 41.175 211.983 L 41.175 212.629 L 39.203 212.629 L 39.203 214.635 L 41.634 214.635 L 41.634 215.281 L 38.395 215.281 L 38.395 209.425 Z " fill="rgb(23,23,23)"/></g></g><g><g><g><path d=" M 71.146 207.976 L 71.146 207.976 C 71.055 208.249 70.79 208.39 70.516 208.296 L 70.516 208.296 L 70.516 208.296 C 70.246 208.205 70.109 207.939 70.196 207.666 L 70.196 207.666 L 70.196 207.666 C 71.543 203.896 74.102 203.693 75.396 207.666 L 75.396 207.666 L 75.556 208.136 L 74.616 208.456 L 74.456 207.976 C 73.388 205.001 72.192 204.918 71.146 207.976 L 71.146 207.976 Z " fill="rgb(0,0,0)"/><path d=" M 78.706 207.666 L 78.706 207.666 C 78.797 207.392 79.065 207.254 79.341 207.346 L 79.341 207.346 L 79.341 207.346 C 79.612 207.438 79.749 207.704 79.656 207.976 L 79.656 207.976 L 79.656 207.976 C 78.373 211.826 75.727 211.88 74.456 207.976 L 74.456 207.976 L 74.296 207.506 L 75.236 207.186 L 75.396 207.666 C 76.465 210.644 77.66 210.722 78.706 207.666 L 78.706 207.666 Z " fill="rgb(23,23,23)"/></g><g><path d=" M 88.118 208.108 L 88.118 208.108 C 87.958 208.334 87.646 208.383 87.423 208.218 L 87.423 208.218 C 87.199 208.052 87.152 207.739 87.318 207.518 L 87.318 207.518 L 89.828 204.158 L 92.368 207.508 L 92.678 207.908 L 91.878 208.518 L 91.578 208.118 L 89.828 205.818 L 88.118 208.108 Z " fill="rgb(0,0,0)"/><path d=" M 95.828 207.518 L 95.828 207.518 C 95.988 207.297 96.299 207.25 96.523 207.413 L 96.523 207.413 C 96.746 207.576 96.793 207.887 96.628 208.108 L 96.628 208.108 L 94.128 211.488 L 91.578 208.118 L 91.278 207.718 L 92.068 207.118 L 92.368 207.508 L 94.118 209.818 L 95.828 207.518 Z " fill="rgb(0,0,0)"/></g><g><path d=" M 105.224 207.818 L 105.224 207.818 C 105.224 208.094 105 208.318 104.724 208.318 L 104.724 208.318 C 104.448 208.318 104.224 208.094 104.224 207.818 L 104.224 207.818 L 104.224 204.488 L 109.474 204.488 L 109.474 207.818 L 109.474 208.318 L 108.474 208.318 L 108.474 207.818 L 108.474 205.488 L 105.224 205.488 L 105.224 207.818 Z " fill="rgb(0,0,0)"/><path d=" M 112.724 207.818 L 112.724 207.818 C 112.724 207.542 112.948 207.318 113.224 207.318 L 113.224 207.318 C 113.5 207.318 113.724 207.542 113.724 207.818 L 113.724 207.818 L 113.724 211.158 L 108.474 211.158 L 108.474 207.818 L 108.474 207.318 L 109.474 207.318 L 109.474 207.818 L 109.474 210.158 L 112.724 210.158 L 112.724 207.818 Z " fill="rgb(0,0,0)"/></g><path d=" M 121.976 208.178 L 121.976 208.178 C 121.739 208.316 121.434 208.233 121.296 207.993 L 121.296 207.993 C 121.158 207.753 121.243 207.446 121.486 207.308 L 121.486 207.308 L 127.156 204.038 L 127.156 209.538 L 129.926 207.348 L 129.926 207.348 C 130.142 207.177 130.455 207.213 130.626 207.428 L 130.626 207.428 C 130.797 207.643 130.762 207.957 130.546 208.128 L 130.546 208.128 L 126.156 211.608 L 126.156 205.768 L 121.976 208.178 Z " fill="rgb(23,23,23)"/></g><g><path d=" M 85.19 228.716 L 85.93 228.716 L 84.74 234.573 L 83.703 234.573 L 82.623 229.668 L 81.535 234.573 L 80.524 234.573 L 79.334 228.716 L 80.124 228.716 L 81.068 233.867 L 82.198 228.716 L 83.057 228.716 L 84.213 233.867 L 85.19 228.716 Z " fill="rgb(0,0,0)"/><path d=" M 90.962 234.573 L 90.112 234.573 L 89.67 233.102 L 87.451 233.102 L 87.009 234.573 L 86.193 234.573 L 88.072 228.716 L 89.092 228.716 L 90.962 234.573 Z  M 88.565 229.388 L 87.647 232.448 L 89.474 232.448 L 88.565 229.388 Z " fill-rule="evenodd" fill="rgb(0,0,0)"/><path d=" M 94.872 228.716 L 95.688 228.716 L 93.818 234.573 L 92.951 234.573 L 91.064 228.716 L 91.931 228.716 L 93.401 233.697 L 94.872 228.716 Z " fill="rgb(0,0,0)"/><path d=" M 96.589 228.716 L 99.759 228.716 L 99.666 229.362 L 97.396 229.362 L 97.396 231.275 L 99.368 231.275 L 99.368 231.921 L 97.396 231.921 L 97.396 233.927 L 99.827 233.927 L 99.827 234.573 L 96.589 234.573 L 96.589 228.716 Z " fill="rgb(0,0,0)"/><path d=" M 101.944 234.573 L 101.136 234.573 L 101.136 228.716 L 104.247 228.716 L 104.154 229.362 L 101.944 229.362 L 101.944 231.36 L 103.856 231.36 L 103.856 231.997 L 101.944 231.997 L 101.944 234.573 Z " fill="rgb(0,0,0)"/><path d=" M 107.401 228.614 L 107.401 228.614 Q 108.14 228.614 108.697 228.967 L 108.697 228.967 L 108.697 228.967 Q 109.254 229.32 109.564 230 L 109.564 230 L 109.564 230 Q 109.874 230.68 109.874 231.649 L 109.874 231.649 L 109.874 231.649 Q 109.874 232.601 109.564 233.281 L 109.564 233.281 L 109.564 233.281 Q 109.254 233.961 108.697 234.318 L 108.697 234.318 L 108.697 234.318 Q 108.14 234.675 107.401 234.675 L 107.401 234.675 L 107.401 234.675 Q 106.661 234.675 106.105 234.326 L 106.105 234.326 L 106.105 234.326 Q 105.548 233.978 105.238 233.298 L 105.238 233.298 L 105.238 233.298 Q 104.927 232.618 104.927 231.657 L 104.927 231.657 L 104.927 231.657 Q 104.927 230.714 105.238 230.025 L 105.238 230.025 L 105.238 230.025 Q 105.548 229.337 106.109 228.975 L 106.109 228.975 L 106.109 228.975 Q 106.67 228.614 107.401 228.614 L 107.401 228.614 Z  M 107.401 229.277 L 107.401 229.277 Q 106.636 229.277 106.211 229.855 L 106.211 229.855 L 106.211 229.855 Q 105.786 230.433 105.786 231.657 L 105.786 231.657 L 105.786 231.657 Q 105.786 232.873 106.215 233.442 L 106.215 233.442 L 106.215 233.442 Q 106.644 234.012 107.401 234.012 L 107.401 234.012 L 107.401 234.012 Q 109.016 234.012 109.016 231.649 L 109.016 231.649 L 109.016 231.649 Q 109.016 229.277 107.401 229.277 L 107.401 229.277 Z " fill-rule="evenodd" fill="rgb(0,0,0)"/><path d=" M 114.311 234.573 L 112.909 232.091 L 111.999 232.091 L 111.999 234.573 L 111.192 234.573 L 111.192 228.716 L 112.73 228.716 L 112.73 228.716 Q 113.827 228.716 114.392 229.133 L 114.392 229.133 L 114.392 229.133 Q 114.957 229.549 114.957 230.374 L 114.957 230.374 L 114.957 230.374 Q 114.957 230.986 114.643 231.368 L 114.643 231.368 L 114.643 231.368 Q 114.328 231.751 113.691 231.946 L 113.691 231.946 L 115.272 234.573 L 114.311 234.573 Z  M 111.999 231.47 L 112.815 231.47 L 112.815 231.47 Q 113.453 231.47 113.776 231.211 L 113.776 231.211 L 113.776 231.211 Q 114.099 230.952 114.099 230.374 L 114.099 230.374 L 114.099 230.374 Q 114.099 229.83 113.772 229.587 L 113.772 229.587 L 113.772 229.587 Q 113.444 229.345 112.722 229.345 L 112.722 229.345 L 111.999 229.345 L 111.999 231.47 Z " fill-rule="evenodd" fill="rgb(0,0,0)"/><path d=" M 121.086 228.716 L 121.57 234.573 L 120.788 234.573 L 120.584 231.929 L 120.584 231.929 Q 120.457 230.374 120.44 229.541 L 120.44 229.541 L 119.173 233.91 L 118.417 233.91 L 117.082 229.532 L 117.082 229.532 Q 117.082 230.595 116.972 231.989 L 116.972 231.989 L 116.776 234.573 L 116.011 234.573 L 116.496 228.716 L 117.584 228.716 L 118.816 232.975 L 119.989 228.716 L 121.086 228.716 Z " fill="rgb(0,0,0)"/></g></g><g><path d=" M 94.783 180.527 L 95.268 186.384 L 94.486 186.384 L 94.282 183.74 L 94.282 183.74 Q 94.154 182.185 94.137 181.352 L 94.137 181.352 L 92.871 185.721 L 92.114 185.721 L 90.78 181.343 L 90.78 181.343 Q 90.78 182.406 90.669 183.8 L 90.669 183.8 L 90.474 186.384 L 89.709 186.384 L 90.193 180.527 L 91.281 180.527 L 92.514 184.786 L 93.687 180.527 L 94.783 180.527 Z  M 98.736 180.425 L 98.736 180.425 Q 99.475 180.425 100.032 180.778 L 100.032 180.778 L 100.032 180.778 Q 100.589 181.131 100.899 181.811 L 100.899 181.811 L 100.899 181.811 Q 101.209 182.491 101.209 183.46 L 101.209 183.46 L 101.209 183.46 Q 101.209 184.412 100.899 185.092 L 100.899 185.092 L 100.899 185.092 Q 100.589 185.772 100.032 186.129 L 100.032 186.129 L 100.032 186.129 Q 99.475 186.486 98.736 186.486 L 98.736 186.486 L 98.736 186.486 Q 97.996 186.486 97.44 186.137 L 97.44 186.137 L 97.44 186.137 Q 96.883 185.789 96.573 185.109 L 96.573 185.109 L 96.573 185.109 Q 96.262 184.429 96.262 183.468 L 96.262 183.468 L 96.262 183.468 Q 96.262 182.525 96.573 181.836 L 96.573 181.836 L 96.573 181.836 Q 96.883 181.148 97.444 180.786 L 97.444 180.786 L 97.444 180.786 Q 98.005 180.425 98.736 180.425 L 98.736 180.425 Z  M 98.736 181.088 L 98.736 181.088 Q 97.971 181.088 97.546 181.666 L 97.546 181.666 L 97.546 181.666 Q 97.121 182.244 97.121 183.468 L 97.121 183.468 L 97.121 183.468 Q 97.121 184.684 97.55 185.253 L 97.55 185.253 L 97.55 185.253 Q 97.979 185.823 98.736 185.823 L 98.736 185.823 L 98.736 185.823 Q 100.351 185.823 100.351 183.46 L 100.351 183.46 L 100.351 183.46 Q 100.351 181.088 98.736 181.088 L 98.736 181.088 Z  M 103.751 180.527 L 103.751 180.527 Q 105.077 180.527 105.88 181.143 L 105.88 181.143 L 105.88 181.143 Q 106.683 181.76 106.683 183.426 L 106.683 183.426 L 106.683 183.426 Q 106.683 185.049 105.88 185.716 L 105.88 185.716 L 105.88 185.716 Q 105.077 186.384 103.929 186.384 L 103.929 186.384 L 102.527 186.384 L 102.527 180.527 L 103.751 180.527 Z  M 103.929 181.173 L 103.334 181.173 L 103.334 185.746 L 103.989 185.746 L 103.989 185.746 Q 104.805 185.746 105.315 185.245 L 105.315 185.245 L 105.315 185.245 Q 105.825 184.743 105.825 183.426 L 105.825 183.426 L 105.825 183.426 Q 105.825 182.499 105.561 182.002 L 105.561 182.002 L 105.561 182.002 Q 105.298 181.505 104.89 181.339 L 104.89 181.339 L 104.89 181.339 Q 104.482 181.173 103.929 181.173 L 103.929 181.173 Z  M 108.001 180.527 L 111.171 180.527 L 111.078 181.173 L 108.808 181.173 L 108.808 183.086 L 110.78 183.086 L 110.78 183.732 L 108.808 183.732 L 108.808 185.738 L 111.239 185.738 L 111.239 186.384 L 108.001 186.384 L 108.001 180.527 Z " fill="rgb(0,0,0)"/><g><path d=" M 73.19 156.424 L 73.972 156.331 L 73.972 162.706 L 73.19 162.706 L 73.19 156.424 Z  M 75.672 158.226 L 76.547 158.226 L 74.898 160.207 L 76.734 162.706 L 75.799 162.706 L 74.023 160.258 L 75.672 158.226 Z " fill="rgb(191,68,68)"/><path d=" M 128.149 157.773 L 128.149 158.529 L 127.537 158.529 L 127.308 160.255 L 127.835 160.255 L 127.835 161.003 L 127.206 161.003 L 127.036 162.295 L 126.126 162.295 L 126.296 161.003 L 125.234 161.003 L 125.064 162.295 L 124.163 162.295 L 124.333 161.003 L 123.823 161.003 L 123.823 160.255 L 124.426 160.255 L 124.656 158.529 L 124.137 158.529 L 124.137 157.773 L 124.758 157.773 L 124.911 156.574 L 125.82 156.574 L 125.659 157.773 L 126.721 157.773 L 126.883 156.574 L 127.792 156.574 L 127.631 157.773 L 128.149 157.773 Z  M 125.336 160.255 L 126.398 160.255 L 126.628 158.529 L 125.565 158.529 L 125.336 160.255 Z " fill="rgb(0,0,0)"/><g><path d=" M 106.338 158.809 L 103.873 161.555 L 106.338 164.3 L 107.078 163.663 L 106.126 162.626 L 106.126 162.626 Q 105.735 162.209 105.395 162.005 L 105.395 162.005 L 109.823 162.005 L 109.823 161.104 L 105.403 161.104 L 105.403 161.104 Q 105.616 160.968 105.76 160.845 L 105.76 160.845 L 105.76 160.845 Q 105.905 160.722 106.126 160.484 L 106.126 160.484 L 107.078 159.447 L 106.338 158.809 Z " fill="rgb(0,0,0)"/><path d=" M 111.605 154.569 L 114.07 157.315 L 111.605 160.06 L 110.865 159.423 L 111.817 158.386 L 111.817 158.386 Q 112.208 157.969 112.548 157.765 L 112.548 157.765 L 108.12 157.765 L 108.12 156.864 L 112.54 156.864 L 112.54 156.864 Q 112.327 156.728 112.183 156.605 L 112.183 156.605 L 112.183 156.605 Q 112.038 156.482 111.817 156.244 L 111.817 156.244 L 110.865 155.207 L 111.605 154.569 Z " fill="rgb(0,0,0)"/></g><g><path d=" M 90.357 158.809 L 92.822 161.555 L 90.357 164.3 L 89.617 163.663 L 90.569 162.626 L 90.569 162.626 Q 90.96 162.209 91.3 162.005 L 91.3 162.005 L 86.872 162.005 L 86.872 161.104 L 91.292 161.104 L 91.292 161.104 Q 91.079 160.968 90.935 160.845 L 90.935 160.845 L 90.935 160.845 Q 90.79 160.722 90.569 160.484 L 90.569 160.484 L 89.617 159.447 L 90.357 158.809 Z " fill="rgb(0,0,0)"/><path d=" M 94.603 154.569 L 97.068 157.315 L 94.603 160.06 L 93.864 159.423 L 94.816 158.386 L 94.816 158.386 Q 95.207 157.969 95.547 157.765 L 95.547 157.765 L 91.118 157.765 L 91.118 156.864 L 95.538 156.864 L 95.538 156.864 Q 95.326 156.728 95.181 156.605 L 95.181 156.605 L 95.181 156.605 Q 95.037 156.482 94.816 156.244 L 94.816 156.244 L 93.864 155.207 L 94.603 154.569 Z " fill="rgb(0,0,0)"/></g></g></g><g><path d="M 71.121 251.688 L 129.827 251.688 C 131.391 251.688 132.661 252.958 132.661 254.523 L 132.661 327.515 C 132.661 329.079 131.391 330.35 129.827 330.35 L 71.121 330.35 C 69.557 330.35 68.287 329.079 68.287 327.515 L 68.287 254.523 C 68.287 252.958 69.557 251.688 71.121 251.688 Z" style="stroke:none;fill:#171717;stroke-miterlimit:10;"/><g><g><path d=" M 83.15 280.992 L 83.838 280.992 L 83.838 286.678 L 83.056 286.678 L 83.056 281.825 L 81.73 282.632 L 81.39 282.08 L 83.15 280.992 Z " fill="rgb(235,235,235)"/></g><g><path d=" M 117.921 280.992 L 117.921 280.992 Q 118.431 280.992 118.818 281.196 L 118.818 281.196 L 118.818 281.196 Q 119.204 281.4 119.417 281.753 L 119.417 281.753 L 119.417 281.753 Q 119.629 282.105 119.629 282.547 L 119.629 282.547 L 119.629 282.547 Q 119.629 283.066 119.396 283.542 L 119.396 283.542 L 119.396 283.542 Q 119.162 284.018 118.677 284.57 L 118.677 284.57 L 118.677 284.57 Q 118.193 285.123 117.207 286.109 L 117.207 286.109 L 119.765 286.109 L 119.672 286.763 L 116.314 286.763 L 116.314 286.143 L 116.314 286.143 Q 117.453 284.961 117.929 284.413 L 117.929 284.413 L 117.929 284.413 Q 118.405 283.865 118.609 283.457 L 118.609 283.457 L 118.609 283.457 Q 118.813 283.049 118.813 282.581 L 118.813 282.581 L 118.813 282.581 Q 118.813 282.139 118.558 281.889 L 118.558 281.889 L 118.558 281.889 Q 118.303 281.638 117.878 281.638 L 117.878 281.638 L 117.878 281.638 Q 117.53 281.638 117.266 281.782 L 117.266 281.782 L 117.266 281.782 Q 117.003 281.927 116.705 282.258 L 116.705 282.258 L 116.195 281.85 L 116.195 281.85 Q 116.544 281.417 116.969 281.204 L 116.969 281.204 L 116.969 281.204 Q 117.394 280.992 117.921 280.992 L 117.921 280.992 Z " fill="rgb(235,235,235)"/></g><g><path d=" M 82.929 321.697 L 82.929 321.697 Q 83.456 321.697 83.835 321.893 L 83.835 321.893 L 83.835 321.893 Q 84.213 322.088 84.413 322.42 L 84.413 322.42 L 84.413 322.42 Q 84.612 322.751 84.612 323.142 L 84.612 323.142 L 84.612 323.142 Q 84.612 323.661 84.311 323.997 L 84.311 323.997 L 84.311 323.997 Q 84.009 324.332 83.507 324.451 L 83.507 324.451 L 83.507 324.451 Q 84.077 324.502 84.434 324.859 L 84.434 324.859 L 84.434 324.859 Q 84.791 325.216 84.791 325.828 L 84.791 325.828 L 84.791 325.828 Q 84.791 326.321 84.553 326.721 L 84.553 326.721 L 84.553 326.721 Q 84.315 327.12 83.873 327.346 L 83.873 327.346 L 83.873 327.346 Q 83.431 327.571 82.853 327.571 L 82.853 327.571 L 82.853 327.571 Q 82.334 327.571 81.901 327.38 L 81.901 327.38 L 81.901 327.38 Q 81.467 327.188 81.144 326.806 L 81.144 326.806 L 81.612 326.372 L 81.612 326.372 Q 81.892 326.661 82.186 326.797 L 82.186 326.797 L 82.186 326.797 Q 82.479 326.933 82.827 326.933 L 82.827 326.933 L 82.827 326.933 Q 83.363 326.933 83.669 326.632 L 83.669 326.632 L 83.669 326.632 Q 83.975 326.33 83.975 325.82 L 83.975 325.82 L 83.975 325.82 Q 83.975 325.259 83.686 325.029 L 83.686 325.029 L 83.686 325.029 Q 83.397 324.8 82.844 324.8 L 82.844 324.8 L 82.419 324.8 L 82.513 324.196 L 82.802 324.196 L 82.802 324.196 Q 83.244 324.196 83.537 323.933 L 83.537 323.933 L 83.537 323.933 Q 83.83 323.669 83.83 323.193 L 83.83 323.193 L 83.83 323.193 Q 83.83 322.794 83.575 322.56 L 83.575 322.56 L 83.575 322.56 Q 83.32 322.326 82.887 322.326 L 82.887 322.326 L 82.887 322.326 Q 82.555 322.326 82.279 322.445 L 82.279 322.445 L 82.279 322.445 Q 82.003 322.564 81.714 322.836 L 81.714 322.836 L 81.306 322.369 L 81.306 322.369 Q 82.028 321.697 82.929 321.697 L 82.929 321.697 Z " fill="rgb(235,235,235)"/></g><g><path d=" M 118.878 325.446 L 119.617 325.446 L 119.617 326.066 L 118.878 326.066 L 118.878 327.469 L 118.121 327.469 L 118.121 326.066 L 115.69 326.066 L 115.69 325.505 L 117.399 321.697 L 118.053 321.969 L 116.515 325.446 L 118.13 325.446 L 118.198 323.916 L 118.878 323.916 L 118.878 325.446 Z " fill="rgb(235,235,235)"/></g></g></g><g><g><g><path d=" M 21.757 321.895 L 22.445 321.895 L 22.445 327.582 L 21.663 327.582 L 21.663 322.728 L 20.337 323.536 L 19.997 322.983 L 21.757 321.895 Z " fill="rgb(23,23,23)"/><path d=" M 27.239 321.725 L 28.055 321.725 L 26.185 327.582 L 25.318 327.582 L 23.431 321.725 L 24.298 321.725 L 25.769 326.706 L 27.239 321.725 Z " fill="rgb(23,23,23)"/><path d=" M 28.999 328.304 L 30.971 320.722 L 31.634 320.875 L 29.67 328.466 L 28.999 328.304 Z " fill="rgb(23,23,23)"/><path d=" M 35.467 321.623 L 35.467 321.623 Q 36.207 321.623 36.764 321.976 L 36.764 321.976 L 36.764 321.976 Q 37.32 322.329 37.631 323.009 L 37.631 323.009 L 37.631 323.009 Q 37.941 323.689 37.941 324.658 L 37.941 324.658 L 37.941 324.658 Q 37.941 325.61 37.631 326.29 L 37.631 326.29 L 37.631 326.29 Q 37.32 326.97 36.764 327.327 L 36.764 327.327 L 36.764 327.327 Q 36.207 327.684 35.467 327.684 L 35.467 327.684 L 35.467 327.684 Q 34.728 327.684 34.171 327.335 L 34.171 327.335 L 34.171 327.335 Q 33.614 326.987 33.304 326.307 L 33.304 326.307 L 33.304 326.307 Q 32.994 325.627 32.994 324.666 L 32.994 324.666 L 32.994 324.666 Q 32.994 323.723 33.304 323.034 L 33.304 323.034 L 33.304 323.034 Q 33.614 322.346 34.175 321.984 L 34.175 321.984 L 34.175 321.984 Q 34.736 321.623 35.467 321.623 L 35.467 321.623 Z  M 35.467 322.286 L 35.467 322.286 Q 34.702 322.286 34.277 322.864 L 34.277 322.864 L 34.277 322.864 Q 33.852 323.442 33.852 324.666 L 33.852 324.666 L 33.852 324.666 Q 33.852 325.882 34.282 326.451 L 34.282 326.451 L 34.282 326.451 Q 34.711 327.021 35.467 327.021 L 35.467 327.021 L 35.467 327.021 Q 37.082 327.021 37.082 324.658 L 37.082 324.658 L 37.082 324.658 Q 37.082 322.286 35.467 322.286 L 35.467 322.286 Z " fill-rule="evenodd" fill="rgb(23,23,23)"/><path d=" M 41.307 321.623 L 41.307 321.623 Q 41.834 321.623 42.195 321.759 L 42.195 321.759 L 42.195 321.759 Q 42.556 321.895 42.93 322.201 L 42.93 322.201 L 42.488 322.72 L 42.488 322.72 Q 41.953 322.286 41.358 322.286 L 41.358 322.286 L 41.358 322.286 Q 40.627 322.286 40.181 322.847 L 40.181 322.847 L 40.181 322.847 Q 39.734 323.408 39.734 324.649 L 39.734 324.649 L 39.734 324.649 Q 39.734 325.856 40.176 326.43 L 40.176 326.43 L 40.176 326.43 Q 40.618 327.004 41.349 327.004 L 41.349 327.004 L 41.349 327.004 Q 41.723 327.004 42.004 326.876 L 42.004 326.876 L 42.004 326.876 Q 42.284 326.749 42.599 326.519 L 42.599 326.519 L 42.998 327.029 L 42.998 327.029 Q 42.726 327.31 42.301 327.497 L 42.301 327.497 L 42.301 327.497 Q 41.876 327.684 41.324 327.684 L 41.324 327.684 L 41.324 327.684 Q 40.61 327.684 40.053 327.331 L 40.053 327.331 L 40.053 327.331 Q 39.496 326.978 39.186 326.294 L 39.186 326.294 L 39.186 326.294 Q 38.876 325.61 38.876 324.649 L 38.876 324.649 L 38.876 324.649 Q 38.876 323.689 39.199 323.004 L 39.199 323.004 L 39.199 323.004 Q 39.522 322.32 40.074 321.972 L 40.074 321.972 L 40.074 321.972 Q 40.627 321.623 41.307 321.623 L 41.307 321.623 Z " fill="rgb(23,23,23)"/><path d=" M 43.364 321.714 L 47.546 321.714 L 47.461 322.403 L 45.837 322.403 L 45.837 327.571 L 45.03 327.571 L 45.03 322.403 L 43.364 322.403 L 43.364 321.714 Z " fill="rgb(23,23,23)"/></g></g></g><g><path d=" M 90.086 351.939 L 90.086 351.939 Q 89.967 352.789 89.967 353.571 L 89.967 353.571 L 89.967 353.571 Q 89.967 354.302 90.086 354.982 L 90.086 354.982 L 88.658 355.118 L 88.658 355.118 Q 88.522 354.693 88.488 354.345 L 88.488 354.345 L 88.488 354.345 Q 88.454 353.996 88.471 353.503 L 88.471 353.503 L 88.471 353.503 Q 87.961 354.217 87.289 354.685 L 87.289 354.685 L 87.289 354.685 Q 86.618 355.152 85.802 355.152 L 85.802 355.152 L 85.802 355.152 Q 84.918 355.152 84.442 354.574 L 84.442 354.574 L 84.442 354.574 Q 84.493 354.795 84.493 355.135 L 84.493 355.135 L 84.493 355.135 Q 84.493 355.747 84.357 356.631 L 84.357 356.631 L 84.119 358.382 L 82.555 358.569 L 84.323 345.989 L 85.87 345.989 L 84.969 352.347 L 84.969 352.347 Q 84.935 352.653 84.935 352.755 L 84.935 352.755 L 84.935 352.755 Q 84.935 353.86 86.057 353.86 L 86.057 353.86 L 86.057 353.86 Q 87.485 353.86 88.522 352.177 L 88.522 352.177 L 89.372 345.989 L 90.919 345.989 L 90.086 351.939 Z " fill="rgb(191,68,68)"/><path d=" M 62.074 345.785 L 62.074 345.785 Q 63.179 345.785 63.842 346.525 L 63.842 346.525 L 63.842 346.525 Q 64.505 347.264 64.505 348.522 L 64.505 348.522 L 64.505 354.948 L 62.941 354.948 L 62.941 348.743 L 62.941 348.743 Q 62.941 347.009 61.683 347.009 L 61.683 347.009 L 61.683 347.009 Q 61.02 347.009 60.561 347.392 L 60.561 347.392 L 60.561 347.392 Q 60.102 347.774 59.575 348.59 L 59.575 348.59 L 59.575 354.948 L 58.011 354.948 L 58.011 348.743 L 58.011 348.743 Q 58.011 347.009 56.753 347.009 L 56.753 347.009 L 56.753 347.009 Q 56.073 347.009 55.614 347.4 L 55.614 347.4 L 55.614 347.4 Q 55.155 347.791 54.645 348.59 L 54.645 348.59 L 54.645 354.948 L 53.081 354.948 L 53.081 345.989 L 54.424 345.989 L 54.56 347.298 L 54.56 347.298 Q 55.563 345.785 57.144 345.785 L 57.144 345.785 L 57.144 345.785 Q 57.977 345.785 58.564 346.21 L 58.564 346.21 L 58.564 346.21 Q 59.15 346.635 59.405 347.4 L 59.405 347.4 L 59.405 347.4 Q 59.932 346.618 60.569 346.202 L 60.569 346.202 L 60.569 346.202 Q 61.207 345.785 62.074 345.785 L 62.074 345.785 Z " fill="rgb(23,23,23)"/><path d=" M 66.85 345.989 L 68.414 345.989 L 68.414 354.948 L 66.85 354.948 L 66.85 345.989 Z " fill="rgb(23,23,23)"/><path d=" M 67.615 341.688 L 67.615 341.688 Q 68.108 341.688 68.414 341.994 L 68.414 341.994 L 68.414 341.994 Q 68.72 342.3 68.72 342.759 L 68.72 342.759 L 68.72 342.759 Q 68.72 343.218 68.414 343.516 L 68.414 343.516 L 68.414 343.516 Q 68.108 343.813 67.615 343.813 L 67.615 343.813 L 67.615 343.813 Q 67.139 343.813 66.833 343.516 L 66.833 343.516 L 66.833 343.516 Q 66.527 343.218 66.527 342.759 L 66.527 342.759 L 66.527 342.759 Q 66.527 342.3 66.833 341.994 L 66.833 341.994 L 66.833 341.994 Q 67.139 341.688 67.615 341.688 L 67.615 341.688 Z " fill="rgb(23,23,23)"/><path d=" M 75.06 345.785 L 75.06 345.785 Q 76.284 345.785 76.972 346.516 L 76.972 346.516 L 76.972 346.516 Q 77.661 347.247 77.661 348.522 L 77.661 348.522 L 77.661 354.948 L 76.097 354.948 L 76.097 348.743 L 76.097 348.743 Q 76.097 347.791 75.74 347.4 L 75.74 347.4 L 75.74 347.4 Q 75.383 347.009 74.686 347.009 L 74.686 347.009 L 74.686 347.009 Q 73.972 347.009 73.428 347.417 L 73.428 347.417 L 73.428 347.417 Q 72.884 347.825 72.408 348.59 L 72.408 348.59 L 72.408 354.948 L 70.844 354.948 L 70.844 345.989 L 72.187 345.989 L 72.323 347.315 L 72.323 347.315 Q 72.799 346.601 73.504 346.193 L 73.504 346.193 L 73.504 346.193 Q 74.21 345.785 75.06 345.785 L 75.06 345.785 Z " fill="rgb(23,23,23)"/></g></g></svg>