<?xml version="1.0" encoding="UTF-8" standalone="no"?><!-- Generator: Gravit.io --><svg xmlns="http://www.w3.org/2000/svg" xmlns:xlink="http://www.w3.org/1999/xlink" style="isolation:isolate" viewBox="0 0 288 364.252" width="288pt" height="364.252pt"><defs><clipPath id="_clipPath_auZu0Y1wyjRYsNh47uaR6dUapgewoEfN"><rect width="288" height="364.252"/></clipPath></defs><g clip-path="url(#_clipPath_auZu0Y1wyjRYsNh47uaR6dUapgewoEfN)"><rect x="0" y="0" width="288" height="364.252" transform="matrix(1,0,0,1,0,0)" fill="rgb(235,235,235)"/><g><path d=" M 97.71 0 L 190.29 0 L 190.29 26.476 C 190.29 28.04 189.02 29.31 187.455 29.31 L 100.545 29.31 C 98.98 29.31 97.71 28.04 97.71 26.476 L 97.71 0 Z " fill="rgb(90,107,145)"/><path d=" M 110.582 21.446 L 111.377 22.83 L 111.377 22.83 Q 110.196 23.648 108.698 23.648 L 108.698 23.648 L 108.698 23.648 Q 107.177 23.648 106.326 22.774 L 106.326 22.774 L 106.326 22.774 Q 105.475 21.9 105.475 20.243 L 105.475 20.243 L 105.475 13.024 L 103.386 13.024 L 103.386 11.412 L 105.475 11.412 L 105.475 8.711 L 107.563 8.461 L 107.563 11.412 L 110.401 11.412 L 110.174 13.024 L 107.563 13.024 L 107.563 20.152 L 107.563 20.152 Q 107.563 21.083 107.892 21.503 L 107.892 21.503 L 107.892 21.503 Q 108.221 21.922 108.993 21.922 L 108.993 21.922 L 108.993 21.922 Q 109.697 21.922 110.582 21.446 L 110.582 21.446 Z  M 121.768 17.042 L 121.768 17.042 Q 121.768 17.564 121.722 18.109 L 121.722 18.109 L 114.095 18.109 L 114.095 18.109 Q 114.231 20.084 115.094 21.014 L 115.094 21.014 L 115.094 21.014 Q 115.957 21.945 117.319 21.945 L 117.319 21.945 L 117.319 21.945 Q 118.181 21.945 118.908 21.695 L 118.908 21.695 L 118.908 21.695 Q 119.634 21.446 120.428 20.901 L 120.428 20.901 L 121.336 22.149 L 121.336 22.149 Q 119.43 23.648 117.16 23.648 L 117.16 23.648 L 117.16 23.648 Q 114.663 23.648 113.267 22.013 L 113.267 22.013 L 113.267 22.013 Q 111.871 20.379 111.871 17.519 L 111.871 17.519 L 111.871 17.519 Q 111.871 15.657 112.472 14.216 L 112.472 14.216 L 112.472 14.216 Q 113.074 12.774 114.197 11.957 L 114.197 11.957 L 114.197 11.957 Q 115.321 11.14 116.842 11.14 L 116.842 11.14 L 116.842 11.14 Q 119.225 11.14 120.497 12.706 L 120.497 12.706 L 120.497 12.706 Q 121.768 14.273 121.768 17.042 L 121.768 17.042 Z  M 119.702 16.565 L 119.702 16.429 L 119.702 16.429 Q 119.702 14.658 118.998 13.728 L 118.998 13.728 L 118.998 13.728 Q 118.295 12.797 116.887 12.797 L 116.887 12.797 L 116.887 12.797 Q 114.322 12.797 114.095 16.565 L 114.095 16.565 L 119.702 16.565 Z  M 129.503 11.14 L 129.503 11.14 Q 130.139 11.14 130.683 11.276 L 130.683 11.276 L 130.297 13.319 L 130.297 13.319 Q 129.753 13.183 129.253 13.183 L 129.253 13.183 L 129.253 13.183 Q 128.141 13.183 127.46 14 L 127.46 14 L 127.46 14 Q 126.779 14.817 126.393 16.543 L 126.393 16.543 L 126.393 23.375 L 124.305 23.375 L 124.305 11.412 L 126.098 11.412 L 126.302 13.841 L 126.302 13.841 Q 126.779 12.502 127.596 11.821 L 127.596 11.821 L 127.596 11.821 Q 128.413 11.14 129.503 11.14 L 129.503 11.14 Z  M 144.275 11.14 L 144.275 11.14 Q 145.751 11.14 146.636 12.127 L 146.636 12.127 L 146.636 12.127 Q 147.521 13.115 147.521 14.795 L 147.521 14.795 L 147.521 23.375 L 145.433 23.375 L 145.433 15.09 L 145.433 15.09 Q 145.433 12.774 143.753 12.774 L 143.753 12.774 L 143.753 12.774 Q 142.868 12.774 142.255 13.285 L 142.255 13.285 L 142.255 13.285 Q 141.642 13.796 140.938 14.885 L 140.938 14.885 L 140.938 23.375 L 138.85 23.375 L 138.85 15.09 L 138.85 15.09 Q 138.85 12.774 137.17 12.774 L 137.17 12.774 L 137.17 12.774 Q 136.262 12.774 135.649 13.296 L 135.649 13.296 L 135.649 13.296 Q 135.036 13.819 134.355 14.885 L 134.355 14.885 L 134.355 23.375 L 132.267 23.375 L 132.267 11.412 L 134.06 11.412 L 134.242 13.16 L 134.242 13.16 Q 135.581 11.14 137.692 11.14 L 137.692 11.14 L 137.692 11.14 Q 138.804 11.14 139.588 11.707 L 139.588 11.707 L 139.588 11.707 Q 140.371 12.275 140.711 13.296 L 140.711 13.296 L 140.711 13.296 Q 141.415 12.252 142.266 11.696 L 142.266 11.696 L 142.266 11.696 Q 143.117 11.14 144.275 11.14 L 144.275 11.14 Z  M 150.921 11.412 L 153.009 11.412 L 153.009 23.375 L 150.921 23.375 L 150.921 11.412 Z  M 151.942 5.669 L 151.942 5.669 Q 152.601 5.669 153.009 6.078 L 153.009 6.078 L 153.009 6.078 Q 153.418 6.486 153.418 7.099 L 153.418 7.099 L 153.418 7.099 Q 153.418 7.712 153.009 8.11 L 153.009 8.11 L 153.009 8.11 Q 152.601 8.507 151.942 8.507 L 151.942 8.507 L 151.942 8.507 Q 151.307 8.507 150.898 8.11 L 150.898 8.11 L 150.898 8.11 Q 150.489 7.712 150.489 7.099 L 150.489 7.099 L 150.489 7.099 Q 150.489 6.486 150.898 6.078 L 150.898 6.078 L 150.898 6.078 Q 151.307 5.669 151.942 5.669 L 151.942 5.669 Z  M 162.152 11.14 L 162.152 11.14 Q 163.786 11.14 164.705 12.116 L 164.705 12.116 L 164.705 12.116 Q 165.625 13.092 165.625 14.795 L 165.625 14.795 L 165.625 23.375 L 163.536 23.375 L 163.536 15.09 L 163.536 15.09 Q 163.536 13.819 163.06 13.296 L 163.06 13.296 L 163.06 13.296 Q 162.583 12.774 161.652 12.774 L 161.652 12.774 L 161.652 12.774 Q 160.699 12.774 159.973 13.319 L 159.973 13.319 L 159.973 13.319 Q 159.246 13.864 158.611 14.885 L 158.611 14.885 L 158.611 23.375 L 156.522 23.375 L 156.522 11.412 L 158.315 11.412 L 158.497 13.183 L 158.497 13.183 Q 159.133 12.23 160.075 11.685 L 160.075 11.685 L 160.075 11.685 Q 161.017 11.14 162.152 11.14 L 162.152 11.14 Z  M 177.083 20.583 L 177.083 20.583 Q 177.083 21.31 177.333 21.661 L 177.333 21.661 L 177.333 21.661 Q 177.582 22.013 178.082 22.195 L 178.082 22.195 L 177.605 23.648 L 177.605 23.648 Q 176.674 23.534 176.107 23.126 L 176.107 23.126 L 176.107 23.126 Q 175.539 22.717 175.267 21.854 L 175.267 21.854 L 175.267 21.854 Q 174.064 23.648 171.703 23.648 L 171.703 23.648 L 171.703 23.648 Q 169.932 23.648 168.911 22.649 L 168.911 22.649 L 168.911 22.649 Q 167.889 21.65 167.889 20.038 L 167.889 20.038 L 167.889 20.038 Q 167.889 18.132 169.263 17.11 L 169.263 17.11 L 169.263 17.11 Q 170.636 16.089 173.156 16.089 L 173.156 16.089 L 174.994 16.089 L 174.994 15.203 L 174.994 15.203 Q 174.994 13.932 174.382 13.387 L 174.382 13.387 L 174.382 13.387 Q 173.769 12.842 172.497 12.842 L 172.497 12.842 L 172.497 12.842 Q 171.181 12.842 169.274 13.478 L 169.274 13.478 L 168.752 11.957 L 168.752 11.957 Q 170.977 11.14 172.883 11.14 L 172.883 11.14 L 172.883 11.14 Q 174.994 11.14 176.039 12.173 L 176.039 12.173 L 176.039 12.173 Q 177.083 13.206 177.083 15.112 L 177.083 15.112 L 177.083 20.583 Z  M 172.18 22.081 L 172.18 22.081 Q 173.973 22.081 174.994 20.22 L 174.994 20.22 L 174.994 17.473 L 173.428 17.473 L 173.428 17.473 Q 170.114 17.473 170.114 19.925 L 170.114 19.925 L 170.114 19.925 Q 170.114 20.992 170.636 21.537 L 170.636 21.537 L 170.636 21.537 Q 171.158 22.081 172.18 22.081 L 172.18 22.081 Z  M 182.957 23.648 L 182.957 23.648 Q 181.799 23.648 181.129 22.955 L 181.129 22.955 L 181.129 22.955 Q 180.46 22.263 180.46 21.014 L 180.46 21.014 L 180.46 6.6 L 182.548 6.35 L 182.548 20.969 L 182.548 20.969 Q 182.548 21.468 182.718 21.695 L 182.718 21.695 L 182.718 21.695 Q 182.889 21.922 183.297 21.922 L 183.297 21.922 L 183.297 21.922 Q 183.728 21.922 184.069 21.786 L 184.069 21.786 L 184.614 23.239 L 184.614 23.239 Q 183.865 23.648 182.957 23.648 L 182.957 23.648 Z " fill="rgb(235,235,235)"/></g><g><path d=" M 161.22 351.939 L 161.22 351.939 Q 161.101 352.789 161.101 353.571 L 161.101 353.571 L 161.101 353.571 Q 161.101 354.302 161.22 354.982 L 161.22 354.982 L 159.792 355.118 L 159.792 355.118 Q 159.656 354.693 159.622 354.345 L 159.622 354.345 L 159.622 354.345 Q 159.588 353.996 159.605 353.503 L 159.605 353.503 L 159.605 353.503 Q 159.095 354.217 158.423 354.685 L 158.423 354.685 L 158.423 354.685 Q 157.752 355.152 156.936 355.152 L 156.936 355.152 L 156.936 355.152 Q 156.052 355.152 155.576 354.574 L 155.576 354.574 L 155.576 354.574 Q 155.627 354.795 155.627 355.135 L 155.627 355.135 L 155.627 355.135 Q 155.627 355.747 155.491 356.631 L 155.491 356.631 L 155.253 358.382 L 153.689 358.569 L 155.457 345.989 L 157.004 345.989 L 156.103 352.347 L 156.103 352.347 Q 156.069 352.653 156.069 352.755 L 156.069 352.755 L 156.069 352.755 Q 156.069 353.86 157.191 353.86 L 157.191 353.86 L 157.191 353.86 Q 158.619 353.86 159.656 352.177 L 159.656 352.177 L 160.506 345.989 L 162.053 345.989 L 161.22 351.939 Z " fill="rgb(90,107,145)"/><path d=" M 133.208 345.785 L 133.208 345.785 Q 134.313 345.785 134.976 346.525 L 134.976 346.525 L 134.976 346.525 Q 135.639 347.264 135.639 348.522 L 135.639 348.522 L 135.639 354.948 L 134.075 354.948 L 134.075 348.743 L 134.075 348.743 Q 134.075 347.009 132.817 347.009 L 132.817 347.009 L 132.817 347.009 Q 132.154 347.009 131.695 347.392 L 131.695 347.392 L 131.695 347.392 Q 131.236 347.774 130.709 348.59 L 130.709 348.59 L 130.709 354.948 L 129.145 354.948 L 129.145 348.743 L 129.145 348.743 Q 129.145 347.009 127.887 347.009 L 127.887 347.009 L 127.887 347.009 Q 127.207 347.009 126.748 347.4 L 126.748 347.4 L 126.748 347.4 Q 126.289 347.791 125.779 348.59 L 125.779 348.59 L 125.779 354.948 L 124.215 354.948 L 124.215 345.989 L 125.558 345.989 L 125.694 347.298 L 125.694 347.298 Q 126.697 345.785 128.278 345.785 L 128.278 345.785 L 128.278 345.785 Q 129.111 345.785 129.697 346.21 L 129.697 346.21 L 129.697 346.21 Q 130.284 346.635 130.539 347.4 L 130.539 347.4 L 130.539 347.4 Q 131.066 346.618 131.704 346.202 L 131.704 346.202 L 131.704 346.202 Q 132.341 345.785 133.208 345.785 L 133.208 345.785 Z  M 137.984 345.989 L 139.548 345.989 L 139.548 354.948 L 137.984 354.948 L 137.984 345.989 Z  M 138.749 341.688 L 138.749 341.688 Q 139.242 341.688 139.548 341.994 L 139.548 341.994 L 139.548 341.994 Q 139.854 342.3 139.854 342.759 L 139.854 342.759 L 139.854 342.759 Q 139.854 343.218 139.548 343.516 L 139.548 343.516 L 139.548 343.516 Q 139.242 343.813 138.749 343.813 L 138.749 343.813 L 138.749 343.813 Q 138.273 343.813 137.967 343.516 L 137.967 343.516 L 137.967 343.516 Q 137.661 343.218 137.661 342.759 L 137.661 342.759 L 137.661 342.759 Q 137.661 342.3 137.967 341.994 L 137.967 341.994 L 137.967 341.994 Q 138.273 341.688 138.749 341.688 L 138.749 341.688 Z  M 146.194 345.785 L 146.194 345.785 Q 147.418 345.785 148.107 346.516 L 148.107 346.516 L 148.107 346.516 Q 148.795 347.247 148.795 348.522 L 148.795 348.522 L 148.795 354.948 L 147.231 354.948 L 147.231 348.743 L 147.231 348.743 Q 147.231 347.791 146.874 347.4 L 146.874 347.4 L 146.874 347.4 Q 146.517 347.009 145.82 347.009 L 145.82 347.009 L 145.82 347.009 Q 145.106 347.009 144.562 347.417 L 144.562 347.417 L 144.562 347.417 Q 144.018 347.825 143.542 348.59 L 143.542 348.59 L 143.542 354.948 L 141.978 354.948 L 141.978 345.989 L 143.321 345.989 L 143.457 347.315 L 143.457 347.315 Q 143.933 346.601 144.639 346.193 L 144.639 346.193 L 144.639 346.193 Q 145.344 345.785 146.194 345.785 L 146.194 345.785 Z " fill-rule="evenodd" fill="rgb(0,23,23)"/></g><g><g><path d=" M 11.027 156.217 L 44.476 156.217 C 46.04 156.217 47.31 157.487 47.31 159.052 L 47.31 212.117 C 47.31 213.681 46.04 214.951 44.476 214.951 L 11.027 214.951 C 9.462 214.951 8.192 213.681 8.192 212.117 L 8.192 159.052 C 8.192 157.487 9.462 156.217 11.027 156.217 Z " fill="rgb(193,193,193)"/><g><path d=" M 40.399 167.976 L 41.207 167.976 L 41.207 173.127 L 43.612 173.127 L 43.519 173.832 L 40.399 173.832 L 40.399 167.976 Z " fill="rgb(0,0,0)"/><path d=" M 43.519 203.193 L 42.116 200.711 L 41.207 200.711 L 41.207 203.193 L 40.399 203.193 L 40.399 197.336 L 41.938 197.336 L 41.938 197.336 Q 43.034 197.336 43.599 197.753 L 43.599 197.753 L 43.599 197.753 Q 44.165 198.169 44.165 198.994 L 44.165 198.994 L 44.165 198.994 Q 44.165 199.606 43.85 199.988 L 43.85 199.988 L 43.85 199.988 Q 43.536 200.371 42.898 200.566 L 42.898 200.566 L 44.479 203.193 L 43.519 203.193 Z  M 41.207 200.09 L 42.023 200.09 L 42.023 200.09 Q 42.66 200.09 42.983 199.831 L 42.983 199.831 L 42.983 199.831 Q 43.306 199.572 43.306 198.994 L 43.306 198.994 L 43.306 198.994 Q 43.306 198.45 42.979 198.207 L 42.979 198.207 L 42.979 198.207 Q 42.652 197.965 41.929 197.965 L 41.929 197.965 L 41.207 197.965 L 41.207 200.09 Z " fill="rgb(0,0,0)"/></g></g><path d=" M 24.445 147.515 L 25.252 147.515 L 25.252 153.371 L 24.445 153.371 L 24.445 147.515 Z  M 31.058 147.515 L 31.058 153.371 L 29.978 153.371 L 27.598 148.399 L 27.598 148.399 Q 27.649 148.985 27.679 149.483 L 27.679 149.483 L 27.679 149.483 Q 27.709 149.98 27.709 150.685 L 27.709 150.685 L 27.709 153.371 L 26.952 153.371 L 26.952 147.515 L 28.006 147.515 L 30.412 152.496 L 30.412 152.496 Q 30.386 152.275 30.344 151.722 L 30.344 151.722 L 30.344 151.722 Q 30.301 151.17 30.301 150.711 L 30.301 150.711 L 30.301 147.515 L 31.058 147.515 Z " fill="rgb(0,0,0)"/></g><g><path d=" M 50.598 186.35 Q 64.233 186.375 64.233 133.554 Q 64.233 80.734 77.868 80.759" fill="none" vector-effect="non-scaling-stroke" stroke-width="0.85" stroke="rgb(193,193,193)" stroke-linejoin="miter" stroke-linecap="square" stroke-miterlimit="3"/><path d=" M 76.41 82.486 L 79.781 80.725 L 76.35 79.085 Z " fill="rgb(193,193,193)" stroke="none"/><path d=" M 191.944 80.759 Q 201.925 81.044 201.925 66.444 Q 201.925 51.844 211.907 52.129" fill="none" vector-effect="non-scaling-stroke" stroke-width="0.85" stroke="rgb(193,193,193)" stroke-linejoin="miter" stroke-linecap="square" stroke-miterlimit="3"/><path d=" M 210.383 53.798 L 213.819 52.17 L 210.455 50.397 Z " fill="rgb(193,193,193)" stroke="none"/><path d=" M 211.907 100.938 Q 201.925 101.015 201.925 112.337 Q 201.925 123.659 191.944 123.732 L 80.245 123.732 Q 69.329 123.625 69.329 112.337 C 69.329 101.049 69.329 112.71 69.329 97.268 Q 69.329 81.826 77.868 80.892" fill="none" vector-effect="non-scaling-stroke" stroke-width="0.85" stroke="rgb(193,193,193)" stroke-linejoin="miter" stroke-linecap="square" stroke-miterlimit="3"/><path d=" M 211.907 310.337 Q 201.925 310.286 201.925 321.732 Q 201.925 333.179 191.944 333.128 L 80.245 333.128 Q 69.329 331.99 69.329 321.732 C 69.329 311.475 69.329 321.693 69.329 306.057 Q 69.329 290.421 77.868 290.383" fill="none" vector-effect="non-scaling-stroke" stroke-width="0.85" stroke="rgb(193,193,193)" stroke-linejoin="miter" stroke-linecap="square" stroke-miterlimit="3"/><path d=" M 191.944 186.579 Q 201.925 186.546 201.925 171.78 Q 201.925 157.013 211.907 156.954" fill="none" vector-effect="non-scaling-stroke" stroke-width="0.85" stroke="rgb(193,193,193)" stroke-linejoin="miter" stroke-linecap="square" stroke-miterlimit="3"/><path d=" M 210.441 158.675 L 213.82 156.929 L 210.396 155.274 Z " fill="rgb(193,193,193)" stroke="none"/><path d=" M 191.944 290.383 Q 201.925 290.544 201.925 276.094 Q 201.925 261.645 211.907 261.808" fill="none" vector-effect="non-scaling-stroke" stroke-width="0.85" stroke="rgb(193,193,193)" stroke-linejoin="miter" stroke-linecap="square" stroke-miterlimit="3"/><path d=" M 210.403 263.495 L 213.82 261.825 L 210.434 260.094 Z " fill="rgb(193,193,193)" stroke="none"/><path d=" M 211.907 205.512 Q 201.925 205.503 201.925 216.907 Q 201.925 228.312 191.944 228.302 L 80.245 228.302 Q 69.329 228.305 69.329 216.907 C 69.329 205.509 69.329 216.576 69.329 201.628 Q 69.329 186.68 77.868 186.35" fill="none" vector-effect="non-scaling-stroke" stroke-width="0.85" stroke="rgb(193,193,193)" stroke-linejoin="miter" stroke-linecap="square" stroke-miterlimit="3"/><path d=" M 50.598 186.35 Q 64.07 186.063 64.233 238.365 Q 64.396 290.668 77.868 290.381" fill="none" vector-effect="non-scaling-stroke" stroke-width="0.85" stroke="rgb(193,193,193)" stroke-linejoin="miter" stroke-linecap="square" stroke-miterlimit="3"/><path d=" M 76.421 292.084 L 79.819 290.378 L 76.415 288.683 Z " fill="rgb(193,193,193)" stroke="none"/><line x1="49.129" y1="186.35" x2="77.868" y2="186.35" vector-effect="non-scaling-stroke" stroke-width="0.85" stroke="rgb(193,193,193)" stroke-linejoin="miter" stroke-linecap="square" stroke-miterlimit="3"/><path d=" M 76.38 188.05 L 79.781 186.35 L 76.38 184.649 Z " fill="rgb(193,193,193)" stroke="none"/><line x1="122.683" y1="80.759" x2="147.402" y2="80.759" vector-effect="non-scaling-stroke" stroke-width="0.85" stroke="rgb(193,193,193)" stroke-linejoin="miter" stroke-linecap="square" stroke-miterlimit="3"/><path d=" M 145.913 82.46 L 149.315 80.759 L 145.913 79.058 Z " fill="rgb(193,193,193)" stroke="none"/><line x1="122.683" y1="186.25" x2="147.402" y2="186.25" vector-effect="non-scaling-stroke" stroke-width="0.85" stroke="rgb(193,193,193)" stroke-linejoin="miter" stroke-linecap="square" stroke-miterlimit="3"/><path d=" M 145.913 187.951 L 149.315 186.25 L 145.913 184.549 Z " fill="rgb(193,193,193)" stroke="none"/><line x1="122.683" y1="290.381" x2="147.402" y2="290.381" vector-effect="non-scaling-stroke" stroke-width="0.85" stroke="rgb(193,193,193)" stroke-linejoin="miter" stroke-linecap="square" stroke-miterlimit="3"/><path d=" M 145.913 292.082 L 149.315 290.381 L 145.913 288.68 Z " fill="rgb(193,193,193)" stroke="none"/></g><path d=" M 156.772 48.563 L 155.922 48.563 L 155.48 47.093 L 153.262 47.093 L 152.82 48.563 L 152.004 48.563 L 153.882 42.707 L 154.902 42.707 L 156.772 48.563 Z  M 154.375 43.378 L 153.457 46.438 L 155.285 46.438 L 154.375 43.378 Z  M 160.793 48.563 L 159.39 46.081 L 158.481 46.081 L 158.481 48.563 L 157.673 48.563 L 157.673 42.707 L 159.212 42.707 L 159.212 42.707 Q 160.308 42.707 160.873 43.123 L 160.873 43.123 L 160.873 43.123 Q 161.439 43.54 161.439 44.364 L 161.439 44.364 L 161.439 44.364 Q 161.439 44.976 161.124 45.359 L 161.124 45.359 L 161.124 45.359 Q 160.81 45.741 160.172 45.937 L 160.172 45.937 L 161.753 48.563 L 160.793 48.563 Z  M 158.481 45.461 L 159.297 45.461 L 159.297 45.461 Q 159.934 45.461 160.257 45.201 L 160.257 45.201 L 160.257 45.201 Q 160.58 44.942 160.58 44.364 L 160.58 44.364 L 160.58 44.364 Q 160.58 43.82 160.253 43.578 L 160.253 43.578 L 160.253 43.578 Q 159.926 43.336 159.203 43.336 L 159.203 43.336 L 158.481 43.336 L 158.481 45.461 Z  M 165.935 48.563 L 164.533 46.081 L 163.623 46.081 L 163.623 48.563 L 162.816 48.563 L 162.816 42.707 L 164.354 42.707 L 164.354 42.707 Q 165.451 42.707 166.016 43.123 L 166.016 43.123 L 166.016 43.123 Q 166.581 43.54 166.581 44.364 L 166.581 44.364 L 166.581 44.364 Q 166.581 44.976 166.267 45.359 L 166.267 45.359 L 166.267 45.359 Q 165.952 45.741 165.315 45.937 L 165.315 45.937 L 166.896 48.563 L 165.935 48.563 Z  M 163.623 45.461 L 164.439 45.461 L 164.439 45.461 Q 165.077 45.461 165.4 45.201 L 165.4 45.201 L 165.4 45.201 Q 165.723 44.942 165.723 44.364 L 165.723 44.364 L 165.723 44.364 Q 165.723 43.82 165.395 43.578 L 165.395 43.578 L 165.395 43.578 Q 165.068 43.336 164.346 43.336 L 164.346 43.336 L 163.623 43.336 L 163.623 45.461 Z  M 167.958 42.707 L 168.766 42.707 L 168.766 48.563 L 167.958 48.563 L 167.958 42.707 Z  M 173.475 42.707 L 174.291 42.707 L 172.421 48.563 L 171.554 48.563 L 169.667 42.707 L 170.534 42.707 L 172.004 47.688 L 173.475 42.707 Z  M 179.161 48.563 L 178.311 48.563 L 177.869 47.093 L 175.651 47.093 L 175.209 48.563 L 174.393 48.563 L 176.271 42.707 L 177.291 42.707 L 179.161 48.563 Z  M 176.764 43.378 L 175.846 46.438 L 177.674 46.438 L 176.764 43.378 Z  M 180.062 42.707 L 180.87 42.707 L 180.87 47.858 L 183.275 47.858 L 183.182 48.563 L 180.062 48.563 L 180.062 42.707 Z  M 185.74 42.605 L 185.74 42.605 Q 186.327 42.605 186.743 42.77 L 186.743 42.77 L 186.743 42.77 Q 187.16 42.936 187.551 43.285 L 187.551 43.285 L 187.109 43.778 L 187.109 43.778 Q 186.777 43.514 186.458 43.391 L 186.458 43.391 L 186.458 43.391 Q 186.14 43.268 185.774 43.268 L 185.774 43.268 L 185.774 43.268 Q 185.315 43.268 185.018 43.48 L 185.018 43.48 L 185.018 43.48 Q 184.72 43.693 184.72 44.101 L 184.72 44.101 L 184.72 44.101 Q 184.72 44.356 184.822 44.53 L 184.822 44.53 L 184.822 44.53 Q 184.924 44.704 185.2 44.849 L 185.2 44.849 L 185.2 44.849 Q 185.477 44.993 186.004 45.155 L 186.004 45.155 L 186.004 45.155 Q 186.556 45.325 186.922 45.52 L 186.922 45.52 L 186.922 45.52 Q 187.287 45.716 187.512 46.06 L 187.512 46.06 L 187.512 46.06 Q 187.738 46.404 187.738 46.931 L 187.738 46.931 L 187.738 46.931 Q 187.738 47.441 187.487 47.832 L 187.487 47.832 L 187.487 47.832 Q 187.236 48.223 186.764 48.444 L 186.764 48.444 L 186.764 48.444 Q 186.293 48.665 185.647 48.665 L 185.647 48.665 L 185.647 48.665 Q 184.431 48.665 183.658 47.909 L 183.658 47.909 L 184.1 47.416 L 184.1 47.416 Q 184.457 47.705 184.822 47.853 L 184.822 47.853 L 184.822 47.853 Q 185.188 48.002 185.638 48.002 L 185.638 48.002 L 185.638 48.002 Q 186.182 48.002 186.539 47.734 L 186.539 47.734 L 186.539 47.734 Q 186.896 47.467 186.896 46.957 L 186.896 46.957 L 186.896 46.957 Q 186.896 46.668 186.786 46.476 L 186.786 46.476 L 186.786 46.476 Q 186.675 46.285 186.407 46.132 L 186.407 46.132 L 186.407 46.132 Q 186.14 45.979 185.63 45.826 L 185.63 45.826 L 185.63 45.826 Q 184.729 45.554 184.312 45.172 L 184.312 45.172 L 184.312 45.172 Q 183.896 44.789 183.896 44.135 L 183.896 44.135 L 183.896 44.135 Q 183.896 43.693 184.129 43.344 L 184.129 43.344 L 184.129 43.344 Q 184.363 42.996 184.784 42.8 L 184.784 42.8 L 184.784 42.8 Q 185.205 42.605 185.74 42.605 L 185.74 42.605 Z " fill="rgb(0,0,0)"/><path d=" M 77.312 42.707 L 77.312 42.707 Q 78.638 42.707 79.441 43.323 L 79.441 43.323 L 79.441 43.323 Q 80.244 43.939 80.244 45.605 L 80.244 45.605 L 80.244 45.605 Q 80.244 47.229 79.441 47.896 L 79.441 47.896 L 79.441 47.896 Q 78.638 48.563 77.49 48.563 L 77.49 48.563 L 76.088 48.563 L 76.088 42.707 L 77.312 42.707 Z  M 77.49 43.353 L 76.895 43.353 L 76.895 47.926 L 77.55 47.926 L 77.55 47.926 Q 78.366 47.926 78.876 47.424 L 78.876 47.424 L 78.876 47.424 Q 79.386 46.923 79.386 45.605 L 79.386 45.605 L 79.386 45.605 Q 79.386 44.679 79.122 44.181 L 79.122 44.181 L 79.122 44.181 Q 78.859 43.684 78.451 43.518 L 78.451 43.518 L 78.451 43.518 Q 78.043 43.353 77.49 43.353 L 77.49 43.353 Z  M 81.562 42.707 L 84.732 42.707 L 84.639 43.353 L 82.369 43.353 L 82.369 45.265 L 84.341 45.265 L 84.341 45.911 L 82.369 45.911 L 82.369 47.917 L 84.8 47.917 L 84.8 48.563 L 81.562 48.563 L 81.562 42.707 Z  M 87.648 42.707 L 87.648 42.707 Q 88.736 42.707 89.331 43.161 L 89.331 43.161 L 89.331 43.161 Q 89.926 43.616 89.926 44.517 L 89.926 44.517 L 89.926 44.517 Q 89.926 45.478 89.305 45.945 L 89.305 45.945 L 89.305 45.945 Q 88.685 46.413 87.656 46.413 L 87.656 46.413 L 86.917 46.413 L 86.917 48.563 L 86.109 48.563 L 86.109 42.707 L 87.648 42.707 Z  M 87.622 45.775 L 87.622 45.775 Q 88.328 45.775 88.698 45.503 L 88.698 45.503 L 88.698 45.503 Q 89.067 45.231 89.067 44.526 L 89.067 44.526 L 89.067 44.526 Q 89.067 43.897 88.698 43.616 L 88.698 43.616 L 88.698 43.616 Q 88.328 43.336 87.639 43.336 L 87.639 43.336 L 86.917 43.336 L 86.917 45.775 L 87.622 45.775 Z  M 95.017 48.563 L 94.167 48.563 L 93.725 47.093 L 91.507 47.093 L 91.065 48.563 L 90.249 48.563 L 92.127 42.707 L 93.147 42.707 L 95.017 48.563 Z  M 92.62 43.378 L 91.702 46.438 L 93.53 46.438 L 92.62 43.378 Z  M 99.038 48.563 L 97.635 46.081 L 96.726 46.081 L 96.726 48.563 L 95.918 48.563 L 95.918 42.707 L 97.457 42.707 L 97.457 42.707 Q 98.553 42.707 99.119 43.123 L 99.119 43.123 L 99.119 43.123 Q 99.684 43.54 99.684 44.364 L 99.684 44.364 L 99.684 44.364 Q 99.684 44.976 99.369 45.359 L 99.369 45.359 L 99.369 45.359 Q 99.055 45.741 98.417 45.937 L 98.417 45.937 L 99.998 48.563 L 99.038 48.563 Z  M 96.726 45.461 L 97.542 45.461 L 97.542 45.461 Q 98.179 45.461 98.502 45.201 L 98.502 45.201 L 98.502 45.201 Q 98.825 44.942 98.825 44.364 L 98.825 44.364 L 98.825 44.364 Q 98.825 43.82 98.498 43.578 L 98.498 43.578 L 98.498 43.578 Q 98.171 43.336 97.448 43.336 L 97.448 43.336 L 96.726 43.336 L 96.726 45.461 Z  M 100.338 42.707 L 104.52 42.707 L 104.435 43.395 L 102.812 43.395 L 102.812 48.563 L 102.004 48.563 L 102.004 43.395 L 100.338 43.395 L 100.338 42.707 Z  M 109.467 42.707 L 109.467 46.685 L 109.467 46.685 Q 109.467 47.271 109.225 47.717 L 109.225 47.717 L 109.225 47.717 Q 108.983 48.164 108.52 48.414 L 108.52 48.414 L 108.52 48.414 Q 108.056 48.665 107.41 48.665 L 107.41 48.665 L 107.41 48.665 Q 106.433 48.665 105.902 48.125 L 105.902 48.125 L 105.902 48.125 Q 105.37 47.586 105.37 46.685 L 105.37 46.685 L 105.37 42.707 L 106.178 42.707 L 106.178 46.625 L 106.178 46.625 Q 106.178 47.305 106.484 47.645 L 106.484 47.645 L 106.484 47.645 Q 106.79 47.985 107.41 47.985 L 107.41 47.985 L 107.41 47.985 Q 108.039 47.985 108.345 47.649 L 108.345 47.649 L 108.345 47.649 Q 108.651 47.314 108.651 46.625 L 108.651 46.625 L 108.651 42.707 L 109.467 42.707 Z  M 114.202 48.563 L 112.799 46.081 L 111.89 46.081 L 111.89 48.563 L 111.082 48.563 L 111.082 42.707 L 112.621 42.707 L 112.621 42.707 Q 113.717 42.707 114.283 43.123 L 114.283 43.123 L 114.283 43.123 Q 114.848 43.54 114.848 44.364 L 114.848 44.364 L 114.848 44.364 Q 114.848 44.976 114.533 45.359 L 114.533 45.359 L 114.533 45.359 Q 114.219 45.741 113.581 45.937 L 113.581 45.937 L 115.162 48.563 L 114.202 48.563 Z  M 111.89 45.461 L 112.706 45.461 L 112.706 45.461 Q 113.343 45.461 113.666 45.201 L 113.666 45.201 L 113.666 45.201 Q 113.989 44.942 113.989 44.364 L 113.989 44.364 L 113.989 44.364 Q 113.989 43.82 113.662 43.578 L 113.662 43.578 L 113.662 43.578 Q 113.335 43.336 112.612 43.336 L 112.612 43.336 L 111.89 43.336 L 111.89 45.461 Z  M 116.225 42.707 L 119.395 42.707 L 119.302 43.353 L 117.032 43.353 L 117.032 45.265 L 119.004 45.265 L 119.004 45.911 L 117.032 45.911 L 117.032 47.917 L 119.463 47.917 L 119.463 48.563 L 116.225 48.563 L 116.225 42.707 Z  M 122.217 42.605 L 122.217 42.605 Q 122.804 42.605 123.22 42.77 L 123.22 42.77 L 123.22 42.77 Q 123.637 42.936 124.028 43.285 L 124.028 43.285 L 123.586 43.778 L 123.586 43.778 Q 123.254 43.514 122.936 43.391 L 122.936 43.391 L 122.936 43.391 Q 122.617 43.268 122.251 43.268 L 122.251 43.268 L 122.251 43.268 Q 121.792 43.268 121.495 43.48 L 121.495 43.48 L 121.495 43.48 Q 121.197 43.693 121.197 44.101 L 121.197 44.101 L 121.197 44.101 Q 121.197 44.356 121.299 44.53 L 121.299 44.53 L 121.299 44.53 Q 121.401 44.704 121.678 44.849 L 121.678 44.849 L 121.678 44.849 Q 121.954 44.993 122.481 45.155 L 122.481 45.155 L 122.481 45.155 Q 123.033 45.325 123.399 45.52 L 123.399 45.52 L 123.399 45.52 Q 123.764 45.716 123.99 46.06 L 123.99 46.06 L 123.99 46.06 Q 124.215 46.404 124.215 46.931 L 124.215 46.931 L 124.215 46.931 Q 124.215 47.441 123.964 47.832 L 123.964 47.832 L 123.964 47.832 Q 123.713 48.223 123.242 48.444 L 123.242 48.444 L 123.242 48.444 Q 122.77 48.665 122.124 48.665 L 122.124 48.665 L 122.124 48.665 Q 120.908 48.665 120.135 47.909 L 120.135 47.909 L 120.577 47.416 L 120.577 47.416 Q 120.934 47.705 121.299 47.853 L 121.299 47.853 L 121.299 47.853 Q 121.665 48.002 122.115 48.002 L 122.115 48.002 L 122.115 48.002 Q 122.659 48.002 123.016 47.734 L 123.016 47.734 L 123.016 47.734 Q 123.373 47.467 123.373 46.957 L 123.373 46.957 L 123.373 46.957 Q 123.373 46.668 123.263 46.476 L 123.263 46.476 L 123.263 46.476 Q 123.152 46.285 122.885 46.132 L 122.885 46.132 L 122.885 46.132 Q 122.617 45.979 122.107 45.826 L 122.107 45.826 L 122.107 45.826 Q 121.206 45.554 120.789 45.172 L 120.789 45.172 L 120.789 45.172 Q 120.373 44.789 120.373 44.135 L 120.373 44.135 L 120.373 44.135 Q 120.373 43.693 120.607 43.344 L 120.607 43.344 L 120.607 43.344 Q 120.84 42.996 121.261 42.8 L 121.261 42.8 L 121.261 42.8 Q 121.682 42.605 122.217 42.605 L 122.217 42.605 Z " fill="rgb(0,0,0)"/><g><g><path d="M 83.424 261.017 L 116.872 261.017 C 118.437 261.017 119.707 262.287 119.707 263.851 L 119.707 316.916 C 119.707 318.48 118.437 319.75 116.872 319.75 L 83.424 319.75 C 81.859 319.75 80.589 318.48 80.589 316.916 L 80.589 263.851 C 80.589 262.287 81.859 261.017 83.424 261.017 Z" style="stroke:none;fill:#171717;stroke-miterlimit:10;"/><path d=" M 112.796 272.775 L 113.603 272.775 L 113.603 277.926 L 116.009 277.926 L 115.915 278.631 L 112.796 278.631 L 112.796 272.775 Z " fill="rgb(235,235,235)"/><path d=" M 115.915 307.992 L 114.513 305.51 L 113.603 305.51 L 113.603 307.992 L 112.796 307.992 L 112.796 302.135 L 114.334 302.135 L 114.334 302.135 Q 115.431 302.135 115.996 302.552 L 115.996 302.552 L 115.996 302.552 Q 116.561 302.968 116.561 303.793 L 116.561 303.793 L 116.561 303.793 Q 116.561 304.405 116.247 304.787 L 116.247 304.787 L 116.247 304.787 Q 115.932 305.17 115.295 305.365 L 115.295 305.365 L 116.876 307.992 L 115.915 307.992 Z  M 113.603 304.889 L 114.419 304.889 L 114.419 304.889 Q 115.057 304.889 115.38 304.63 L 115.38 304.63 L 115.38 304.63 Q 115.703 304.371 115.703 303.793 L 115.703 303.793 L 115.703 303.793 Q 115.703 303.249 115.376 303.007 L 115.376 303.007 L 115.376 303.007 Q 115.048 302.764 114.326 302.764 L 114.326 302.764 L 113.603 302.764 L 113.603 304.889 Z " fill="rgb(235,235,235)"/></g><g><path d=" M 153.144 261.017 L 186.592 261.017 C 188.157 261.017 189.427 262.287 189.427 263.851 L 189.427 316.916 C 189.427 318.48 188.157 319.75 186.592 319.75 L 153.144 319.75 C 151.579 319.75 150.309 318.48 150.309 316.916 L 150.309 263.851 C 150.309 262.287 151.579 261.017 153.144 261.017 Z " fill="rgb(193,193,193)"/><g><path d=" M 182.516 272.775 L 183.323 272.775 L 183.323 277.926 L 185.729 277.926 L 185.635 278.631 L 182.516 278.631 L 182.516 272.775 Z " fill="rgb(0,0,0)"/><path d=" M 185.635 307.992 L 184.233 305.51 L 183.323 305.51 L 183.323 307.992 L 182.516 307.992 L 182.516 302.135 L 184.054 302.135 L 184.054 302.135 Q 185.151 302.135 185.716 302.552 L 185.716 302.552 L 185.716 302.552 Q 186.281 302.968 186.281 303.793 L 186.281 303.793 L 186.281 303.793 Q 186.281 304.405 185.967 304.787 L 185.967 304.787 L 185.967 304.787 Q 185.652 305.17 185.015 305.365 L 185.015 305.365 L 186.596 307.992 L 185.635 307.992 Z  M 183.323 304.889 L 184.139 304.889 L 184.139 304.889 Q 184.777 304.889 185.1 304.63 L 185.1 304.63 L 185.1 304.63 Q 185.423 304.371 185.423 303.793 L 185.423 303.793 L 185.423 303.793 Q 185.423 303.249 185.096 303.007 L 185.096 303.007 L 185.096 303.007 Q 184.768 302.764 184.046 302.764 L 184.046 302.764 L 183.323 302.764 L 183.323 304.889 Z " fill="rgb(0,0,0)"/></g></g><g><g><path d=" M 226.972 281.594 L 226.972 281.594 Q 227.524 281.594 227.928 281.751 L 227.928 281.751 L 227.928 281.751 Q 228.332 281.908 228.731 282.24 L 228.731 282.24 L 228.255 282.733 L 228.255 282.733 Q 227.941 282.478 227.652 282.367 L 227.652 282.367 L 227.652 282.367 Q 227.363 282.257 226.972 282.257 L 226.972 282.257 L 226.972 282.257 Q 226.521 282.257 226.143 282.499 L 226.143 282.499 L 226.143 282.499 Q 225.765 282.741 225.527 283.272 L 225.527 283.272 L 225.527 283.272 Q 225.289 283.804 225.289 284.62 L 225.289 284.62 L 225.289 284.62 Q 225.289 285.852 225.693 286.422 L 225.693 286.422 L 225.693 286.422 Q 226.096 286.991 226.887 286.991 L 226.887 286.991 L 226.887 286.991 Q 227.533 286.991 228 286.728 L 228 286.728 L 228 284.96 L 226.963 284.96 L 226.87 284.305 L 228.799 284.305 L 228.799 287.136 L 228.799 287.136 Q 227.89 287.654 226.887 287.654 L 226.887 287.654 L 226.887 287.654 Q 225.731 287.654 225.081 286.881 L 225.081 286.881 L 225.081 286.881 Q 224.43 286.107 224.43 284.62 L 224.43 284.62 L 224.43 284.62 Q 224.43 283.668 224.775 282.983 L 224.775 282.983 L 224.775 282.983 Q 225.119 282.299 225.701 281.946 L 225.701 281.946 L 225.701 281.946 Q 226.283 281.594 226.972 281.594 L 226.972 281.594 Z  M 234.146 287.552 L 233.296 287.552 L 232.854 286.082 L 230.635 286.082 L 230.193 287.552 L 229.377 287.552 L 231.256 281.696 L 232.276 281.696 L 234.146 287.552 Z  M 231.749 282.367 L 230.831 285.427 L 232.658 285.427 L 231.749 282.367 Z  M 235.047 281.696 L 235.854 281.696 L 235.854 287.552 L 235.047 287.552 L 235.047 281.696 Z  M 241.66 281.696 L 241.66 287.552 L 240.58 287.552 L 238.2 282.58 L 238.2 282.58 Q 238.251 283.166 238.281 283.663 L 238.281 283.663 L 238.281 283.663 Q 238.311 284.161 238.311 284.866 L 238.311 284.866 L 238.311 287.552 L 237.554 287.552 L 237.554 281.696 L 238.608 281.696 L 241.014 286.677 L 241.014 286.677 Q 240.988 286.456 240.946 285.903 L 240.946 285.903 L 240.946 285.903 Q 240.903 285.351 240.903 284.892 L 240.903 284.892 L 240.903 281.696 L 241.66 281.696 Z " fill="rgb(0,0,0)"/></g><g><path d=" M 222.815 330.167 L 222.815 330.167 Q 224.141 330.167 224.945 330.783 L 224.945 330.783 L 224.945 330.783 Q 225.748 331.4 225.748 333.066 L 225.748 333.066 L 225.748 333.066 Q 225.748 334.689 224.945 335.356 L 224.945 335.356 L 224.945 335.356 Q 224.141 336.024 222.994 336.024 L 222.994 336.024 L 221.591 336.024 L 221.591 330.167 L 222.815 330.167 Z  M 222.994 330.813 L 222.399 330.813 L 222.399 335.386 L 223.053 335.386 L 223.053 335.386 Q 223.869 335.386 224.379 334.885 L 224.379 334.885 L 224.379 334.885 Q 224.889 334.383 224.889 333.066 L 224.889 333.066 L 224.889 333.066 Q 224.889 332.139 224.626 331.642 L 224.626 331.642 L 224.626 331.642 Q 224.362 331.145 223.954 330.979 L 223.954 330.979 L 223.954 330.979 Q 223.546 330.813 222.994 330.813 L 222.994 330.813 Z  M 227.065 330.167 L 230.236 330.167 L 230.142 330.813 L 227.873 330.813 L 227.873 332.726 L 229.845 332.726 L 229.845 333.372 L 227.873 333.372 L 227.873 335.378 L 230.304 335.378 L 230.304 336.024 L 227.065 336.024 L 227.065 330.167 Z  M 231.613 330.167 L 232.42 330.167 L 232.42 335.318 L 234.826 335.318 L 234.732 336.024 L 231.613 336.024 L 231.613 330.167 Z  M 239.815 336.024 L 238.965 336.024 L 238.523 334.553 L 236.305 334.553 L 235.863 336.024 L 235.047 336.024 L 236.925 330.167 L 237.945 330.167 L 239.815 336.024 Z  M 237.418 330.839 L 236.5 333.899 L 238.328 333.899 L 237.418 330.839 Z  M 243.657 330.167 L 244.499 330.167 L 242.612 333.771 L 242.612 336.024 L 241.796 336.024 L 241.796 333.78 L 239.909 330.167 L 240.801 330.167 L 242.229 333.066 L 243.657 330.167 Z " fill="rgb(0,0,0)"/></g></g><g><rect x="117.638" y="327.458" width="34.809" height="11.339" transform="matrix(1,0,0,1,0,0)" fill="rgb(235,235,235)"/><path d=" M 134.634 330.199 L 135.442 330.199 L 135.442 336.056 L 134.634 336.056 L 134.634 330.199 Z  M 137.711 330.199 L 138.629 330.199 L 136.411 332.877 L 138.791 336.056 L 137.796 336.056 L 135.484 332.928 L 137.711 330.199 Z  M 139.641 330.199 L 140.448 330.199 L 140.448 336.056 L 139.641 336.056 L 139.641 330.199 Z  M 142.148 330.199 L 142.956 330.199 L 142.956 335.35 L 145.361 335.35 L 145.268 336.056 L 142.148 336.056 L 142.148 330.199 Z  M 146.381 330.199 L 147.189 330.199 L 147.189 335.35 L 149.594 335.35 L 149.501 336.056 L 146.381 336.056 L 146.381 330.199 Z " fill="rgb(0,0,0)"/></g></g><g><g><path d="M 83.424 156.205 L 116.872 156.205 C 118.437 156.205 119.707 157.476 119.707 159.04 L 119.707 212.105 C 119.707 213.669 118.437 214.939 116.872 214.939 L 83.424 214.939 C 81.859 214.939 80.589 213.669 80.589 212.105 L 80.589 159.04 C 80.589 157.476 81.859 156.205 83.424 156.205 Z" style="stroke:none;fill:#171717;stroke-miterlimit:10;"/><path d=" M 112.796 167.964 L 113.603 167.964 L 113.603 173.115 L 116.009 173.115 L 115.915 173.82 L 112.796 173.82 L 112.796 167.964 Z " fill="rgb(235,235,235)"/><path d=" M 115.915 203.181 L 114.513 200.699 L 113.603 200.699 L 113.603 203.181 L 112.796 203.181 L 112.796 197.324 L 114.334 197.324 L 114.334 197.324 Q 115.431 197.324 115.996 197.741 L 115.996 197.741 L 115.996 197.741 Q 116.561 198.157 116.561 198.982 L 116.561 198.982 L 116.561 198.982 Q 116.561 199.594 116.247 199.976 L 116.247 199.976 L 116.247 199.976 Q 115.932 200.359 115.295 200.554 L 115.295 200.554 L 116.876 203.181 L 115.915 203.181 Z  M 113.603 200.078 L 114.419 200.078 L 114.419 200.078 Q 115.057 200.078 115.38 199.819 L 115.38 199.819 L 115.38 199.819 Q 115.703 199.56 115.703 198.982 L 115.703 198.982 L 115.703 198.982 Q 115.703 198.438 115.376 198.196 L 115.376 198.196 L 115.376 198.196 Q 115.048 197.953 114.326 197.953 L 114.326 197.953 L 113.603 197.953 L 113.603 200.078 Z " fill="rgb(235,235,235)"/></g><g><path d=" M 153.144 156.205 L 186.592 156.205 C 188.157 156.205 189.427 157.476 189.427 159.04 L 189.427 212.105 C 189.427 213.669 188.157 214.939 186.592 214.939 L 153.144 214.939 C 151.579 214.939 150.309 213.669 150.309 212.105 L 150.309 159.04 C 150.309 157.476 151.579 156.205 153.144 156.205 Z " fill="rgb(193,193,193)"/><g><path d=" M 182.516 167.964 L 183.323 167.964 L 183.323 173.115 L 185.729 173.115 L 185.635 173.82 L 182.516 173.82 L 182.516 167.964 Z " fill="rgb(0,0,0)"/><path d=" M 185.635 203.181 L 184.233 200.699 L 183.323 200.699 L 183.323 203.181 L 182.516 203.181 L 182.516 197.324 L 184.054 197.324 L 184.054 197.324 Q 185.151 197.324 185.716 197.741 L 185.716 197.741 L 185.716 197.741 Q 186.281 198.157 186.281 198.982 L 186.281 198.982 L 186.281 198.982 Q 186.281 199.594 185.967 199.976 L 185.967 199.976 L 185.967 199.976 Q 185.652 200.359 185.015 200.554 L 185.015 200.554 L 186.596 203.181 L 185.635 203.181 Z  M 183.323 200.078 L 184.139 200.078 L 184.139 200.078 Q 184.777 200.078 185.1 199.819 L 185.1 199.819 L 185.1 199.819 Q 185.423 199.56 185.423 198.982 L 185.423 198.982 L 185.423 198.982 Q 185.423 198.438 185.096 198.196 L 185.096 198.196 L 185.096 198.196 Q 184.768 197.953 184.046 197.953 L 184.046 197.953 L 183.323 197.953 L 183.323 200.078 Z " fill="rgb(0,0,0)"/></g></g><g><g><path d=" M 226.972 176.797 L 226.972 176.797 Q 227.524 176.797 227.928 176.954 L 227.928 176.954 L 227.928 176.954 Q 228.332 177.111 228.731 177.443 L 228.731 177.443 L 228.255 177.936 L 228.255 177.936 Q 227.941 177.681 227.652 177.57 L 227.652 177.57 L 227.652 177.57 Q 227.363 177.46 226.972 177.46 L 226.972 177.46 L 226.972 177.46 Q 226.521 177.46 226.143 177.702 L 226.143 177.702 L 226.143 177.702 Q 225.765 177.944 225.527 178.476 L 225.527 178.476 L 225.527 178.476 Q 225.289 179.007 225.289 179.823 L 225.289 179.823 L 225.289 179.823 Q 225.289 181.055 225.693 181.625 L 225.693 181.625 L 225.693 181.625 Q 226.096 182.194 226.887 182.194 L 226.887 182.194 L 226.887 182.194 Q 227.533 182.194 228 181.931 L 228 181.931 L 228 180.163 L 226.963 180.163 L 226.87 179.508 L 228.799 179.508 L 228.799 182.339 L 228.799 182.339 Q 227.89 182.857 226.887 182.857 L 226.887 182.857 L 226.887 182.857 Q 225.731 182.857 225.081 182.084 L 225.081 182.084 L 225.081 182.084 Q 224.43 181.31 224.43 179.823 L 224.43 179.823 L 224.43 179.823 Q 224.43 178.871 224.775 178.187 L 224.775 178.187 L 224.775 178.187 Q 225.119 177.502 225.701 177.15 L 225.701 177.15 L 225.701 177.15 Q 226.283 176.797 226.972 176.797 L 226.972 176.797 Z  M 234.146 182.755 L 233.296 182.755 L 232.854 181.285 L 230.635 181.285 L 230.193 182.755 L 229.377 182.755 L 231.256 176.899 L 232.276 176.899 L 234.146 182.755 Z  M 231.749 177.57 L 230.831 180.63 L 232.658 180.63 L 231.749 177.57 Z  M 235.047 176.899 L 235.854 176.899 L 235.854 182.755 L 235.047 182.755 L 235.047 176.899 Z  M 241.66 176.899 L 241.66 182.755 L 240.58 182.755 L 238.2 177.783 L 238.2 177.783 Q 238.251 178.369 238.281 178.867 L 238.281 178.867 L 238.281 178.867 Q 238.311 179.364 238.311 180.069 L 238.311 180.069 L 238.311 182.755 L 237.554 182.755 L 237.554 176.899 L 238.608 176.899 L 241.014 181.88 L 241.014 181.88 Q 240.988 181.659 240.946 181.106 L 240.946 181.106 L 240.946 181.106 Q 240.903 180.554 240.903 180.095 L 240.903 180.095 L 240.903 176.899 L 241.66 176.899 Z " fill="rgb(0,0,0)"/></g><g><path d=" M 222.815 225.355 L 222.815 225.355 Q 224.141 225.355 224.945 225.971 L 224.945 225.971 L 224.945 225.971 Q 225.748 226.587 225.748 228.253 L 225.748 228.253 L 225.748 228.253 Q 225.748 229.877 224.945 230.544 L 224.945 230.544 L 224.945 230.544 Q 224.141 231.211 222.994 231.211 L 222.994 231.211 L 221.591 231.211 L 221.591 225.355 L 222.815 225.355 Z  M 222.994 226.001 L 222.399 226.001 L 222.399 230.574 L 223.053 230.574 L 223.053 230.574 Q 223.869 230.574 224.379 230.072 L 224.379 230.072 L 224.379 230.072 Q 224.889 229.571 224.889 228.253 L 224.889 228.253 L 224.889 228.253 Q 224.889 227.327 224.626 226.83 L 224.626 226.83 L 224.626 226.83 Q 224.362 226.332 223.954 226.167 L 223.954 226.167 L 223.954 226.167 Q 223.546 226.001 222.994 226.001 L 222.994 226.001 Z  M 227.065 225.355 L 230.236 225.355 L 230.142 226.001 L 227.873 226.001 L 227.873 227.913 L 229.845 227.913 L 229.845 228.559 L 227.873 228.559 L 227.873 230.565 L 230.304 230.565 L 230.304 231.211 L 227.065 231.211 L 227.065 225.355 Z  M 231.613 225.355 L 232.42 225.355 L 232.42 230.506 L 234.826 230.506 L 234.732 231.211 L 231.613 231.211 L 231.613 225.355 Z  M 239.815 231.211 L 238.965 231.211 L 238.523 229.741 L 236.305 229.741 L 235.863 231.211 L 235.047 231.211 L 236.925 225.355 L 237.945 225.355 L 239.815 231.211 Z  M 237.418 226.026 L 236.5 229.086 L 238.328 229.086 L 237.418 226.026 Z  M 243.657 225.355 L 244.499 225.355 L 242.612 228.959 L 242.612 231.211 L 241.796 231.211 L 241.796 228.967 L 239.909 225.355 L 240.801 225.355 L 242.229 228.253 L 243.657 225.355 Z " fill="rgb(0,0,0)"/></g></g><g><rect x="117.638" y="222.633" width="34.809" height="11.339" transform="matrix(1,0,0,1,0,0)" fill="rgb(235,235,235)"/><path d=" M 134.634 225.374 L 135.442 225.374 L 135.442 231.231 L 134.634 231.231 L 134.634 225.374 Z  M 137.711 225.374 L 138.629 225.374 L 136.411 228.052 L 138.791 231.231 L 137.796 231.231 L 135.484 228.103 L 137.711 225.374 Z  M 139.641 225.374 L 140.448 225.374 L 140.448 231.231 L 139.641 231.231 L 139.641 225.374 Z  M 142.148 225.374 L 142.956 225.374 L 142.956 230.525 L 145.361 230.525 L 145.268 231.231 L 142.148 231.231 L 142.148 225.374 Z  M 146.381 225.374 L 147.189 225.374 L 147.189 230.525 L 149.594 230.525 L 149.501 231.231 L 146.381 231.231 L 146.381 225.374 Z " fill="rgb(0,0,0)"/></g></g><g><g><path d="M 83.427 51.394 L 116.876 51.394 C 118.44 51.394 119.711 52.665 119.711 54.229 L 119.711 107.294 C 119.711 108.858 118.44 110.128 116.876 110.128 L 83.427 110.128 C 81.863 110.128 80.592 108.858 80.592 107.294 L 80.592 54.229 C 80.592 52.665 81.863 51.394 83.427 51.394 Z" style="stroke:none;fill:#171717;stroke-miterlimit:10;"/><path d=" M 112.799 63.153 L 113.607 63.153 L 113.607 68.304 L 116.012 68.304 L 115.919 69.009 L 112.799 69.009 L 112.799 63.153 Z " fill="rgb(235,235,235)"/><path d=" M 115.919 98.37 L 114.516 95.888 L 113.607 95.888 L 113.607 98.37 L 112.799 98.37 L 112.799 92.513 L 114.338 92.513 L 114.338 92.513 Q 115.434 92.513 116 92.93 L 116 92.93 L 116 92.93 Q 116.565 93.346 116.565 94.171 L 116.565 94.171 L 116.565 94.171 Q 116.565 94.783 116.25 95.165 L 116.25 95.165 L 116.25 95.165 Q 115.936 95.548 115.298 95.743 L 115.298 95.743 L 116.879 98.37 L 115.919 98.37 Z  M 113.607 95.267 L 114.423 95.267 L 114.423 95.267 Q 115.06 95.267 115.383 95.008 L 115.383 95.008 L 115.383 95.008 Q 115.706 94.749 115.706 94.171 L 115.706 94.171 L 115.706 94.171 Q 115.706 93.627 115.379 93.385 L 115.379 93.385 L 115.379 93.385 Q 115.052 93.142 114.329 93.142 L 114.329 93.142 L 113.607 93.142 L 113.607 95.267 Z " fill="rgb(235,235,235)"/></g><g><path d=" M 153.146 51.394 L 186.595 51.394 C 188.159 51.394 189.43 52.665 189.43 54.229 L 189.43 107.294 C 189.43 108.858 188.159 110.128 186.595 110.128 L 153.146 110.128 C 151.582 110.128 150.312 108.858 150.312 107.294 L 150.312 54.229 C 150.312 52.665 151.582 51.394 153.146 51.394 Z " fill="rgb(193,193,193)"/><g><path d=" M 182.518 63.153 L 183.326 63.153 L 183.326 68.304 L 185.731 68.304 L 185.638 69.009 L 182.518 69.009 L 182.518 63.153 Z " fill="rgb(0,0,0)"/><path d=" M 185.638 98.37 L 184.235 95.888 L 183.326 95.888 L 183.326 98.37 L 182.518 98.37 L 182.518 92.513 L 184.057 92.513 L 184.057 92.513 Q 185.153 92.513 185.719 92.93 L 185.719 92.93 L 185.719 92.93 Q 186.284 93.346 186.284 94.171 L 186.284 94.171 L 186.284 94.171 Q 186.284 94.783 185.969 95.165 L 185.969 95.165 L 185.969 95.165 Q 185.655 95.548 185.017 95.743 L 185.017 95.743 L 186.598 98.37 L 185.638 98.37 Z  M 183.326 95.267 L 184.142 95.267 L 184.142 95.267 Q 184.779 95.267 185.102 95.008 L 185.102 95.008 L 185.102 95.008 Q 185.425 94.749 185.425 94.171 L 185.425 94.171 L 185.425 94.171 Q 185.425 93.627 185.098 93.385 L 185.098 93.385 L 185.098 93.385 Q 184.771 93.142 184.048 93.142 L 184.048 93.142 L 183.326 93.142 L 183.326 95.267 Z " fill="rgb(0,0,0)"/></g></g><g><g><path d=" M 226.975 71.972 L 226.975 71.972 Q 227.527 71.972 227.931 72.129 L 227.931 72.129 L 227.931 72.129 Q 228.335 72.286 228.734 72.618 L 228.734 72.618 L 228.258 73.111 L 228.258 73.111 Q 227.944 72.856 227.655 72.745 L 227.655 72.745 L 227.655 72.745 Q 227.366 72.635 226.975 72.635 L 226.975 72.635 L 226.975 72.635 Q 226.524 72.635 226.146 72.877 L 226.146 72.877 L 226.146 72.877 Q 225.768 73.119 225.53 73.65 L 225.53 73.65 L 225.53 73.65 Q 225.292 74.182 225.292 74.998 L 225.292 74.998 L 225.292 74.998 Q 225.292 76.23 225.695 76.8 L 225.695 76.8 L 225.695 76.8 Q 226.099 77.369 226.89 77.369 L 226.89 77.369 L 226.89 77.369 Q 227.536 77.369 228.003 77.106 L 228.003 77.106 L 228.003 75.338 L 226.966 75.338 L 226.873 74.683 L 228.802 74.683 L 228.802 77.514 L 228.802 77.514 Q 227.893 78.032 226.89 78.032 L 226.89 78.032 L 226.89 78.032 Q 225.734 78.032 225.083 77.259 L 225.083 77.259 L 225.083 77.259 Q 224.433 76.485 224.433 74.998 L 224.433 74.998 L 224.433 74.998 Q 224.433 74.046 224.777 73.361 L 224.777 73.361 L 224.777 73.361 Q 225.122 72.677 225.704 72.324 L 225.704 72.324 L 225.704 72.324 Q 226.286 71.972 226.975 71.972 L 226.975 71.972 Z  M 234.149 77.93 L 233.299 77.93 L 232.857 76.46 L 230.638 76.46 L 230.196 77.93 L 229.38 77.93 L 231.259 72.074 L 232.279 72.074 L 234.149 77.93 Z  M 231.752 72.745 L 230.834 75.805 L 232.661 75.805 L 231.752 72.745 Z  M 235.05 72.074 L 235.857 72.074 L 235.857 77.93 L 235.05 77.93 L 235.05 72.074 Z  M 241.663 72.074 L 241.663 77.93 L 240.583 77.93 L 238.203 72.958 L 238.203 72.958 Q 238.254 73.544 238.284 74.041 L 238.284 74.041 L 238.284 74.041 Q 238.314 74.539 238.314 75.244 L 238.314 75.244 L 238.314 77.93 L 237.557 77.93 L 237.557 72.074 L 238.611 72.074 L 241.017 77.055 L 241.017 77.055 Q 240.991 76.834 240.949 76.281 L 240.949 76.281 L 240.949 76.281 Q 240.906 75.729 240.906 75.27 L 240.906 75.27 L 240.906 72.074 L 241.663 72.074 Z " fill="rgb(0,0,0)"/></g><g><path d=" M 222.818 120.545 L 222.818 120.545 Q 224.144 120.545 224.947 121.161 L 224.947 121.161 L 224.947 121.161 Q 225.751 121.778 225.751 123.444 L 225.751 123.444 L 225.751 123.444 Q 225.751 125.067 224.947 125.734 L 224.947 125.734 L 224.947 125.734 Q 224.144 126.402 222.997 126.402 L 222.997 126.402 L 221.594 126.402 L 221.594 120.545 L 222.818 120.545 Z  M 222.997 121.191 L 222.402 121.191 L 222.402 125.764 L 223.056 125.764 L 223.056 125.764 Q 223.872 125.764 224.382 125.263 L 224.382 125.263 L 224.382 125.263 Q 224.892 124.761 224.892 123.444 L 224.892 123.444 L 224.892 123.444 Q 224.892 122.517 224.629 122.02 L 224.629 122.02 L 224.629 122.02 Q 224.365 121.523 223.957 121.357 L 223.957 121.357 L 223.957 121.357 Q 223.549 121.191 222.997 121.191 L 222.997 121.191 Z  M 227.068 120.545 L 230.239 120.545 L 230.145 121.191 L 227.876 121.191 L 227.876 123.104 L 229.848 123.104 L 229.848 123.75 L 227.876 123.75 L 227.876 125.756 L 230.307 125.756 L 230.307 126.402 L 227.068 126.402 L 227.068 120.545 Z  M 231.616 120.545 L 232.423 120.545 L 232.423 125.696 L 234.829 125.696 L 234.735 126.402 L 231.616 126.402 L 231.616 120.545 Z  M 239.818 126.402 L 238.968 126.402 L 238.526 124.931 L 236.308 124.931 L 235.866 126.402 L 235.05 126.402 L 236.928 120.545 L 237.948 120.545 L 239.818 126.402 Z  M 237.421 121.217 L 236.503 124.277 L 238.331 124.277 L 237.421 121.217 Z  M 243.66 120.545 L 244.502 120.545 L 242.615 124.149 L 242.615 126.402 L 241.799 126.402 L 241.799 124.158 L 239.912 120.545 L 240.804 120.545 L 242.232 123.444 L 243.66 120.545 Z " fill="rgb(0,0,0)"/></g></g><g><rect x="117.638" y="118.063" width="34.809" height="11.339" transform="matrix(1,0,0,1,0,0)" fill="rgb(235,235,235)"/><path d=" M 134.634 120.804 L 135.442 120.804 L 135.442 126.661 L 134.634 126.661 L 134.634 120.804 Z  M 137.711 120.804 L 138.629 120.804 L 136.411 123.482 L 138.791 126.661 L 137.796 126.661 L 135.484 123.533 L 137.711 120.804 Z  M 139.641 120.804 L 140.448 120.804 L 140.448 126.661 L 139.641 126.661 L 139.641 120.804 Z  M 142.148 120.804 L 142.956 120.804 L 142.956 125.955 L 145.361 125.955 L 145.268 126.661 L 142.148 126.661 L 142.148 120.804 Z  M 146.381 120.804 L 147.189 120.804 L 147.189 125.955 L 149.594 125.955 L 149.501 126.661 L 146.381 126.661 L 146.381 120.804 Z " fill="rgb(0,0,0)"/></g></g></g></svg>